<svg version="1.1" viewBox="0 0 27 19" xmlns="http://www.w3.org/2000/svg">
    <rect x="0" y="0" width="1" height="1" fill="rgb(250, 250, 250)"/>
    <rect x="1" y="0" width="1" height="1" fill="rgb(158, 158, 158)"/>
    <rect x="2" y="0" width="1" height="1" fill="rgb(91, 91, 91)"/>
    <rect x="3" y="0" width="1" height="1" fill="rgb(45, 45, 45)"/>
    <rect x="4" y="0" width="1" height="1" fill="rgb(49, 49, 49)"/>
    <rect x="5" y="0" width="1" height="1" fill="rgb(63, 63, 63)"/>
    <rect x="6" y="0" width="1" height="1" fill="rgb(63, 63, 63)"/>
    <rect x="7" y="0" width="1" height="1" fill="rgb(61, 61, 61)"/>
    <rect x="8" y="0" width="1" height="1" fill="rgb(61, 61, 61)"/>
    <rect x="9" y="0" width="1" height="1" fill="rgb(61, 61, 61)"/>
    <rect x="10" y="0" width="1" height="1" fill="rgb(61, 61, 61)"/>
    <rect x="11" y="0" width="1" height="1" fill="rgb(61, 61, 61)"/>
    <rect x="12" y="0" width="1" height="1" fill="rgb(61, 61, 61)"/>
    <rect x="13" y="0" width="1" height="1" fill="rgb(61, 61, 61)"/>
    <rect x="14" y="0" width="1" height="1" fill="rgb(61, 61, 61)"/>
    <rect x="15" y="0" width="1" height="1" fill="rgb(61, 61, 61)"/>
    <rect x="16" y="0" width="1" height="1" fill="rgb(61, 61, 61)"/>
    <rect x="17" y="0" width="1" height="1" fill="rgb(61, 61, 61)"/>
    <rect x="18" y="0" width="1" height="1" fill="rgb(61, 61, 61)"/>
    <rect x="19" y="0" width="1" height="1" fill="rgb(61, 61, 61)"/>
    <rect x="20" y="0" width="1" height="1" fill="rgb(61, 61, 61)"/>
    <rect x="21" y="0" width="1" height="1" fill="rgb(63, 63, 63)"/>
    <rect x="22" y="0" width="1" height="1" fill="rgb(55, 55, 55)"/>
    <rect x="23" y="0" width="1" height="1" fill="rgb(53, 53, 53)"/>
    <rect x="24" y="0" width="1" height="1" fill="rgb(75, 75, 75)"/>
    <rect x="25" y="0" width="1" height="1" fill="rgb(110, 110, 110)"/>
    <rect x="26" y="0" width="1" height="1" fill="rgb(159, 159, 159)"/>
    <rect x="0" y="1" width="1" height="1" fill="rgb(250, 250, 250)"/>
    <rect x="1" y="1" width="1" height="1" fill="rgb(155, 155, 155)"/>
    <rect x="2" y="1" width="1" height="1" fill="rgb(86, 86, 86)"/>
    <rect x="3" y="1" width="1" height="1" fill="rgb(41, 41, 41)"/>
    <rect x="4" y="1" width="1" height="1" fill="rgb(44, 44, 44)"/>
    <rect x="5" y="1" width="1" height="1" fill="rgb(58, 58, 58)"/>
    <rect x="6" y="1" width="1" height="1" fill="rgb(56, 56, 56)"/>
    <rect x="7" y="1" width="1" height="1" fill="rgb(54, 54, 54)"/>
    <rect x="8" y="1" width="1" height="1" fill="rgb(54, 54, 54)"/>
    <rect x="9" y="1" width="1" height="1" fill="rgb(54, 54, 54)"/>
    <rect x="10" y="1" width="1" height="1" fill="rgb(54, 54, 54)"/>
    <rect x="11" y="1" width="1" height="1" fill="rgb(54, 54, 54)"/>
    <rect x="12" y="1" width="1" height="1" fill="rgb(54, 54, 54)"/>
    <rect x="13" y="1" width="1" height="1" fill="rgb(54, 54, 54)"/>
    <rect x="14" y="1" width="1" height="1" fill="rgb(54, 54, 54)"/>
    <rect x="15" y="1" width="1" height="1" fill="rgb(54, 54, 54)"/>
    <rect x="16" y="1" width="1" height="1" fill="rgb(54, 54, 54)"/>
    <rect x="17" y="1" width="1" height="1" fill="rgb(54, 54, 54)"/>
    <rect x="18" y="1" width="1" height="1" fill="rgb(54, 54, 54)"/>
    <rect x="19" y="1" width="1" height="1" fill="rgb(54, 54, 54)"/>
    <rect x="20" y="1" width="1" height="1" fill="rgb(56, 56, 56)"/>
    <rect x="21" y="1" width="1" height="1" fill="rgb(56, 56, 56)"/>
    <rect x="22" y="1" width="1" height="1" fill="rgb(50, 50, 50)"/>
    <rect x="23" y="1" width="1" height="1" fill="rgb(48, 48, 48)"/>
    <rect x="24" y="1" width="1" height="1" fill="rgb(70, 70, 70)"/>
    <rect x="25" y="1" width="1" height="1" fill="rgb(106, 106, 106)"/>
    <rect x="26" y="1" width="1" height="1" fill="rgb(157, 157, 157)"/>
    <rect x="0" y="2" width="1" height="1" fill="rgb(250, 250, 250)"/>
    <rect x="1" y="2" width="1" height="1" fill="rgb(153, 153, 153)"/>
    <rect x="2" y="2" width="1" height="1" fill="rgb(80, 80, 80)"/>
    <rect x="3" y="2" width="1" height="1" fill="rgb(36, 36, 36)"/>
    <rect x="4" y="2" width="1" height="1" fill="rgb(37, 37, 37)"/>
    <rect x="5" y="2" width="1" height="1" fill="rgb(49, 49, 49)"/>
    <rect x="6" y="2" width="1" height="1" fill="rgb(49, 49, 49)"/>
    <rect x="7" y="2" width="1" height="1" fill="rgb(45, 45, 45)"/>
    <rect x="8" y="2" width="1" height="1" fill="rgb(45, 45, 45)"/>
    <rect x="9" y="2" width="1" height="1" fill="rgb(45, 45, 45)"/>
    <rect x="10" y="2" width="1" height="1" fill="rgb(45, 45, 45)"/>
    <rect x="11" y="2" width="1" height="1" fill="rgb(45, 45, 45)"/>
    <rect x="12" y="2" width="1" height="1" fill="rgb(45, 45, 45)"/>
    <rect x="13" y="2" width="1" height="1" fill="rgb(45, 45, 45)"/>
    <rect x="14" y="2" width="1" height="1" fill="rgb(45, 45, 45)"/>
    <rect x="15" y="2" width="1" height="1" fill="rgb(45, 45, 45)"/>
    <rect x="16" y="2" width="1" height="1" fill="rgb(45, 45, 45)"/>
    <rect x="17" y="2" width="1" height="1" fill="rgb(45, 45, 45)"/>
    <rect x="18" y="2" width="1" height="1" fill="rgb(45, 45, 45)"/>
    <rect x="19" y="2" width="1" height="1" fill="rgb(45, 45, 45)"/>
    <rect x="20" y="2" width="1" height="1" fill="rgb(47, 47, 47)"/>
    <rect x="21" y="2" width="1" height="1" fill="rgb(47, 47, 47)"/>
    <rect x="22" y="2" width="1" height="1" fill="rgb(41, 41, 41)"/>
    <rect x="23" y="2" width="1" height="1" fill="rgb(42, 42, 42)"/>
    <rect x="24" y="2" width="1" height="1" fill="rgb(64, 64, 64)"/>
    <rect x="25" y="2" width="1" height="1" fill="rgb(101, 101, 101)"/>
    <rect x="26" y="2" width="1" height="1" fill="rgb(152, 152, 152)"/>
    <rect x="0" y="3" width="1" height="1" fill="rgb(250, 250, 250)"/>
    <rect x="1" y="3" width="1" height="1" fill="rgb(150, 150, 150)"/>
    <rect x="2" y="3" width="1" height="1" fill="rgb(71, 71, 71)"/>
    <rect x="3" y="3" width="1" height="1" fill="rgb(27, 27, 27)"/>
    <rect x="4" y="3" width="1" height="1" fill="rgb(28, 28, 28)"/>
    <rect x="5" y="3" width="1" height="1" fill="rgb(36, 36, 36)"/>
    <rect x="6" y="3" width="1" height="1" fill="rgb(36, 36, 36)"/>
    <rect x="7" y="3" width="1" height="1" fill="rgb(34, 34, 34)"/>
    <rect x="8" y="3" width="1" height="1" fill="rgb(34, 34, 34)"/>
    <rect x="9" y="3" width="1" height="1" fill="rgb(34, 34, 34)"/>
    <rect x="10" y="3" width="1" height="1" fill="rgb(34, 34, 34)"/>
    <rect x="11" y="3" width="1" height="1" fill="rgb(34, 34, 34)"/>
    <rect x="12" y="3" width="1" height="1" fill="rgb(34, 34, 34)"/>
    <rect x="13" y="3" width="1" height="1" fill="rgb(34, 34, 34)"/>
    <rect x="14" y="3" width="1" height="1" fill="rgb(34, 34, 34)"/>
    <rect x="15" y="3" width="1" height="1" fill="rgb(34, 34, 34)"/>
    <rect x="16" y="3" width="1" height="1" fill="rgb(34, 34, 34)"/>
    <rect x="17" y="3" width="1" height="1" fill="rgb(34, 34, 34)"/>
    <rect x="18" y="3" width="1" height="1" fill="rgb(34, 34, 34)"/>
    <rect x="19" y="3" width="1" height="1" fill="rgb(34, 34, 34)"/>
    <rect x="20" y="3" width="1" height="1" fill="rgb(34, 34, 34)"/>
    <rect x="21" y="3" width="1" height="1" fill="rgb(36, 36, 36)"/>
    <rect x="22" y="3" width="1" height="1" fill="rgb(30, 30, 30)"/>
    <rect x="23" y="3" width="1" height="1" fill="rgb(31, 31, 31)"/>
    <rect x="24" y="3" width="1" height="1" fill="rgb(53, 53, 53)"/>
    <rect x="25" y="3" width="1" height="1" fill="rgb(92, 92, 92)"/>
    <rect x="26" y="3" width="1" height="1" fill="rgb(146, 146, 146)"/>
    <rect x="0" y="4" width="1" height="1" fill="rgb(250, 250, 250)"/>
    <rect x="1" y="4" width="1" height="1" fill="rgb(147, 147, 147)"/>
    <rect x="2" y="4" width="1" height="1" fill="rgb(61, 61, 61)"/>
    <rect x="3" y="4" width="1" height="1" fill="rgb(16, 16, 16)"/>
    <rect x="4" y="4" width="1" height="1" fill="rgb(15, 15, 15)"/>
    <rect x="5" y="4" width="1" height="1" fill="rgb(23, 23, 23)"/>
    <rect x="6" y="4" width="1" height="1" fill="rgb(21, 21, 21)"/>
    <rect x="7" y="4" width="1" height="1" fill="rgb(19, 19, 19)"/>
    <rect x="8" y="4" width="1" height="1" fill="rgb(19, 19, 19)"/>
    <rect x="9" y="4" width="1" height="1" fill="rgb(19, 19, 19)"/>
    <rect x="10" y="4" width="1" height="1" fill="rgb(19, 19, 19)"/>
    <rect x="11" y="4" width="1" height="1" fill="rgb(19, 19, 19)"/>
    <rect x="12" y="4" width="1" height="1" fill="rgb(19, 19, 19)"/>
    <rect x="13" y="4" width="1" height="1" fill="rgb(19, 19, 19)"/>
    <rect x="14" y="4" width="1" height="1" fill="rgb(19, 19, 19)"/>
    <rect x="15" y="4" width="1" height="1" fill="rgb(19, 19, 19)"/>
    <rect x="16" y="4" width="1" height="1" fill="rgb(19, 19, 19)"/>
    <rect x="17" y="4" width="1" height="1" fill="rgb(19, 19, 19)"/>
    <rect x="18" y="4" width="1" height="1" fill="rgb(19, 19, 19)"/>
    <rect x="19" y="4" width="1" height="1" fill="rgb(19, 19, 19)"/>
    <rect x="20" y="4" width="1" height="1" fill="rgb(21, 21, 21)"/>
    <rect x="21" y="4" width="1" height="1" fill="rgb(21, 21, 21)"/>
    <rect x="22" y="4" width="1" height="1" fill="rgb(17, 17, 17)"/>
    <rect x="23" y="4" width="1" height="1" fill="rgb(17, 17, 17)"/>
    <rect x="24" y="4" width="1" height="1" fill="rgb(40, 40, 40)"/>
    <rect x="25" y="4" width="1" height="1" fill="rgb(83, 83, 83)"/>
    <rect x="26" y="4" width="1" height="1" fill="rgb(139, 139, 139)"/>
    <rect x="0" y="5" width="1" height="1" fill="rgb(250, 250, 250)"/>
    <rect x="1" y="5" width="1" height="1" fill="rgb(141, 141, 141)"/>
    <rect x="2" y="5" width="1" height="1" fill="rgb(52, 52, 52)"/>
    <rect x="3" y="5" width="1" height="1" fill="rgb(4, 4, 4)"/>
    <rect x="4" y="5" width="1" height="1" fill="rgb(3, 3, 3)"/>
    <rect x="5" y="5" width="1" height="1" fill="rgb(7, 7, 7)"/>
    <rect x="6" y="5" width="1" height="1" fill="rgb(7, 7, 7)"/>
    <rect x="7" y="5" width="1" height="1" fill="rgb(5, 5, 5)"/>
    <rect x="8" y="5" width="1" height="1" fill="rgb(5, 5, 5)"/>
    <rect x="9" y="5" width="1" height="1" fill="rgb(5, 5, 5)"/>
    <rect x="10" y="5" width="1" height="1" fill="rgb(5, 5, 5)"/>
    <rect x="11" y="5" width="1" height="1" fill="rgb(5, 5, 5)"/>
    <rect x="12" y="5" width="1" height="1" fill="rgb(5, 5, 5)"/>
    <rect x="13" y="5" width="1" height="1" fill="rgb(5, 5, 5)"/>
    <rect x="14" y="5" width="1" height="1" fill="rgb(5, 5, 5)"/>
    <rect x="15" y="5" width="1" height="1" fill="rgb(5, 5, 5)"/>
    <rect x="16" y="5" width="1" height="1" fill="rgb(5, 5, 5)"/>
    <rect x="17" y="5" width="1" height="1" fill="rgb(5, 5, 5)"/>
    <rect x="18" y="5" width="1" height="1" fill="rgb(5, 5, 5)"/>
    <rect x="19" y="5" width="1" height="1" fill="rgb(5, 5, 5)"/>
    <rect x="20" y="5" width="1" height="1" fill="rgb(5, 5, 5)"/>
    <rect x="21" y="5" width="1" height="1" fill="rgb(7, 7, 7)"/>
    <rect x="22" y="5" width="1" height="1" fill="rgb(5, 5, 5)"/>
    <rect x="23" y="5" width="1" height="1" fill="rgb(6, 6, 6)"/>
    <rect x="24" y="5" width="1" height="1" fill="rgb(29, 29, 29)"/>
    <rect x="25" y="5" width="1" height="1" fill="rgb(73, 73, 73)"/>
    <rect x="26" y="5" width="1" height="1" fill="rgb(132, 132, 132)"/>
    <rect x="0" y="6" width="1" height="1" fill="rgb(250, 250, 250)"/>
    <rect x="1" y="6" width="1" height="1" fill="rgb(137, 137, 137)"/>
    <rect x="2" y="6" width="1" height="1" fill="rgb(45, 45, 45)"/>
    <rect x="3" y="6" width="1" height="1" fill="rgb(2, 2, 2)"/>
    <rect x="4" y="6" width="1" height="1" fill="rgb(1, 1, 1)"/>
    <rect x="5" y="6" width="1" height="1" fill="rgb(1, 1, 1)"/>
    <rect x="6" y="6" width="1" height="1" fill="rgb(1, 1, 1)"/>
    <rect x="7" y="6" width="1" height="1" fill="rgb(1, 1, 1)"/>
    <rect x="8" y="6" width="1" height="1" fill="rgb(1, 1, 1)"/>
    <rect x="9" y="6" width="1" height="1" fill="rgb(1, 1, 1)"/>
    <rect x="10" y="6" width="1" height="1" fill="rgb(1, 1, 1)"/>
    <rect x="11" y="6" width="1" height="1" fill="rgb(1, 1, 1)"/>
    <rect x="12" y="6" width="1" height="1" fill="rgb(1, 1, 1)"/>
    <rect x="13" y="6" width="1" height="1" fill="rgb(1, 1, 1)"/>
    <rect x="14" y="6" width="1" height="1" fill="rgb(1, 1, 1)"/>
    <rect x="15" y="6" width="1" height="1" fill="rgb(1, 1, 1)"/>
    <rect x="16" y="6" width="1" height="1" fill="rgb(1, 1, 1)"/>
    <rect x="17" y="6" width="1" height="1" fill="rgb(1, 1, 1)"/>
    <rect x="18" y="6" width="1" height="1" fill="rgb(1, 1, 1)"/>
    <rect x="19" y="6" width="1" height="1" fill="rgb(1, 1, 1)"/>
    <rect x="20" y="6" width="1" height="1" fill="rgb(1, 1, 1)"/>
    <rect x="21" y="6" width="1" height="1" fill="rgb(1, 1, 1)"/>
    <rect x="22" y="6" width="1" height="1" fill="rgb(1, 1, 1)"/>
    <rect x="23" y="6" width="1" height="1" fill="rgb(2, 2, 2)"/>
    <rect x="24" y="6" width="1" height="1" fill="rgb(21, 21, 21)"/>
    <rect x="25" y="6" width="1" height="1" fill="rgb(67, 67, 67)"/>
    <rect x="26" y="6" width="1" height="1" fill="rgb(129, 129, 129)"/>
    <rect x="0" y="7" width="1" height="1" fill="rgb(250, 250, 250)"/>
    <rect x="1" y="7" width="1" height="1" fill="rgb(137, 137, 137)"/>
    <rect x="2" y="7" width="1" height="1" fill="rgb(46, 46, 46)"/>
    <rect x="3" y="7" width="1" height="1" fill="rgb(0, 0, 0)"/>
    <rect x="4" y="7" width="1" height="1" fill="rgb(0, 0, 0)"/>
    <rect x="5" y="7" width="1" height="1" fill="rgb(0, 0, 0)"/>
    <rect x="6" y="7" width="1" height="1" fill="rgb(0, 0, 0)"/>
    <rect x="7" y="7" width="1" height="1" fill="rgb(0, 0, 0)"/>
    <rect x="8" y="7" width="1" height="1" fill="rgb(0, 0, 0)"/>
    <rect x="9" y="7" width="1" height="1" fill="rgb(0, 0, 0)"/>
    <rect x="10" y="7" width="1" height="1" fill="rgb(0, 0, 0)"/>
    <rect x="11" y="7" width="1" height="1" fill="rgb(0, 0, 0)"/>
    <rect x="12" y="7" width="1" height="1" fill="rgb(0, 0, 0)"/>
    <rect x="13" y="7" width="1" height="1" fill="rgb(0, 0, 0)"/>
    <rect x="14" y="7" width="1" height="1" fill="rgb(0, 0, 0)"/>
    <rect x="15" y="7" width="1" height="1" fill="rgb(0, 0, 0)"/>
    <rect x="16" y="7" width="1" height="1" fill="rgb(0, 0, 0)"/>
    <rect x="17" y="7" width="1" height="1" fill="rgb(0, 0, 0)"/>
    <rect x="18" y="7" width="1" height="1" fill="rgb(0, 0, 0)"/>
    <rect x="19" y="7" width="1" height="1" fill="rgb(0, 0, 0)"/>
    <rect x="20" y="7" width="1" height="1" fill="rgb(0, 0, 0)"/>
    <rect x="21" y="7" width="1" height="1" fill="rgb(0, 0, 0)"/>
    <rect x="22" y="7" width="1" height="1" fill="rgb(0, 0, 0)"/>
    <rect x="23" y="7" width="1" height="1" fill="rgb(0, 0, 0)"/>
    <rect x="24" y="7" width="1" height="1" fill="rgb(22, 22, 22)"/>
    <rect x="25" y="7" width="1" height="1" fill="rgb(67, 67, 67)"/>
    <rect x="26" y="7" width="1" height="1" fill="rgb(128, 128, 128)"/>
    <rect x="0" y="8" width="1" height="1" fill="rgb(249, 249, 249)"/>
    <rect x="1" y="8" width="1" height="1" fill="rgb(134, 134, 134)"/>
    <rect x="2" y="8" width="1" height="1" fill="rgb(50, 50, 50)"/>
    <rect x="3" y="8" width="1" height="1" fill="rgb(2, 2, 2)"/>
    <rect x="4" y="8" width="1" height="1" fill="rgb(2, 2, 2)"/>
    <rect x="5" y="8" width="1" height="1" fill="rgb(4, 4, 4)"/>
    <rect x="6" y="8" width="1" height="1" fill="rgb(4, 4, 4)"/>
    <rect x="7" y="8" width="1" height="1" fill="rgb(2, 2, 2)"/>
    <rect x="8" y="8" width="1" height="1" fill="rgb(2, 2, 2)"/>
    <rect x="9" y="8" width="1" height="1" fill="rgb(2, 2, 2)"/>
    <rect x="10" y="8" width="1" height="1" fill="rgb(2, 2, 2)"/>
    <rect x="11" y="8" width="1" height="1" fill="rgb(2, 2, 2)"/>
    <rect x="12" y="8" width="1" height="1" fill="rgb(2, 2, 2)"/>
    <rect x="13" y="8" width="1" height="1" fill="rgb(2, 2, 2)"/>
    <rect x="14" y="8" width="1" height="1" fill="rgb(2, 2, 2)"/>
    <rect x="15" y="8" width="1" height="1" fill="rgb(2, 2, 2)"/>
    <rect x="16" y="8" width="1" height="1" fill="rgb(2, 2, 2)"/>
    <rect x="17" y="8" width="1" height="1" fill="rgb(2, 2, 2)"/>
    <rect x="18" y="8" width="1" height="1" fill="rgb(2, 2, 2)"/>
    <rect x="19" y="8" width="1" height="1" fill="rgb(2, 2, 2)"/>
    <rect x="20" y="8" width="1" height="1" fill="rgb(2, 2, 2)"/>
    <rect x="21" y="8" width="1" height="1" fill="rgb(4, 4, 4)"/>
    <rect x="22" y="8" width="1" height="1" fill="rgb(2, 2, 2)"/>
    <rect x="23" y="8" width="1" height="1" fill="rgb(2, 2, 2)"/>
    <rect x="24" y="8" width="1" height="1" fill="rgb(26, 26, 26)"/>
    <rect x="25" y="8" width="1" height="1" fill="rgb(66, 66, 66)"/>
    <rect x="26" y="8" width="1" height="1" fill="rgb(128, 128, 128)"/>
    <rect x="0" y="9" width="1" height="1" fill="rgb(249, 249, 249)"/>
    <rect x="1" y="9" width="1" height="1" fill="rgb(132, 132, 132)"/>
    <rect x="2" y="9" width="1" height="1" fill="rgb(48, 48, 48)"/>
    <rect x="3" y="9" width="1" height="1" fill="rgb(0, 0, 0)"/>
    <rect x="4" y="9" width="1" height="1" fill="rgb(0, 0, 0)"/>
    <rect x="5" y="9" width="1" height="1" fill="rgb(2, 2, 2)"/>
    <rect x="6" y="9" width="1" height="1" fill="rgb(2, 2, 2)"/>
    <rect x="7" y="9" width="1" height="1" fill="rgb(0, 0, 0)"/>
    <rect x="8" y="9" width="1" height="1" fill="rgb(0, 0, 0)"/>
    <rect x="9" y="9" width="1" height="1" fill="rgb(0, 0, 0)"/>
    <rect x="10" y="9" width="1" height="1" fill="rgb(0, 0, 0)"/>
    <rect x="11" y="9" width="1" height="1" fill="rgb(0, 0, 0)"/>
    <rect x="12" y="9" width="1" height="1" fill="rgb(0, 0, 0)"/>
    <rect x="13" y="9" width="1" height="1" fill="rgb(0, 0, 0)"/>
    <rect x="14" y="9" width="1" height="1" fill="rgb(0, 0, 0)"/>
    <rect x="15" y="9" width="1" height="1" fill="rgb(0, 0, 0)"/>
    <rect x="16" y="9" width="1" height="1" fill="rgb(0, 0, 0)"/>
    <rect x="17" y="9" width="1" height="1" fill="rgb(0, 0, 0)"/>
    <rect x="18" y="9" width="1" height="1" fill="rgb(0, 0, 0)"/>
    <rect x="19" y="9" width="1" height="1" fill="rgb(0, 0, 0)"/>
    <rect x="20" y="9" width="1" height="1" fill="rgb(0, 0, 0)"/>
    <rect x="21" y="9" width="1" height="1" fill="rgb(2, 2, 2)"/>
    <rect x="22" y="9" width="1" height="1" fill="rgb(0, 0, 0)"/>
    <rect x="23" y="9" width="1" height="1" fill="rgb(0, 0, 0)"/>
    <rect x="24" y="9" width="1" height="1" fill="rgb(24, 24, 24)"/>
    <rect x="25" y="9" width="1" height="1" fill="rgb(66, 66, 66)"/>
    <rect x="26" y="9" width="1" height="1" fill="rgb(127, 127, 127)"/>
    <rect x="0" y="10" width="1" height="1" fill="rgb(249, 249, 249)"/>
    <rect x="1" y="10" width="1" height="1" fill="rgb(131, 131, 131)"/>
    <rect x="2" y="10" width="1" height="1" fill="rgb(40, 40, 40)"/>
    <rect x="3" y="10" width="1" height="1" fill="rgb(0, 0, 0)"/>
    <rect x="4" y="10" width="1" height="1" fill="rgb(0, 0, 0)"/>
    <rect x="5" y="10" width="1" height="1" fill="rgb(0, 0, 0)"/>
    <rect x="6" y="10" width="1" height="1" fill="rgb(0, 0, 0)"/>
    <rect x="7" y="10" width="1" height="1" fill="rgb(0, 0, 0)"/>
    <rect x="8" y="10" width="1" height="1" fill="rgb(0, 0, 0)"/>
    <rect x="9" y="10" width="1" height="1" fill="rgb(0, 0, 0)"/>
    <rect x="10" y="10" width="1" height="1" fill="rgb(0, 0, 0)"/>
    <rect x="11" y="10" width="1" height="1" fill="rgb(0, 0, 0)"/>
    <rect x="12" y="10" width="1" height="1" fill="rgb(0, 0, 0)"/>
    <rect x="13" y="10" width="1" height="1" fill="rgb(0, 0, 0)"/>
    <rect x="14" y="10" width="1" height="1" fill="rgb(0, 0, 0)"/>
    <rect x="15" y="10" width="1" height="1" fill="rgb(0, 0, 0)"/>
    <rect x="16" y="10" width="1" height="1" fill="rgb(0, 0, 0)"/>
    <rect x="17" y="10" width="1" height="1" fill="rgb(0, 0, 0)"/>
    <rect x="18" y="10" width="1" height="1" fill="rgb(0, 0, 0)"/>
    <rect x="19" y="10" width="1" height="1" fill="rgb(0, 0, 0)"/>
    <rect x="20" y="10" width="1" height="1" fill="rgb(0, 0, 0)"/>
    <rect x="21" y="10" width="1" height="1" fill="rgb(0, 0, 0)"/>
    <rect x="22" y="10" width="1" height="1" fill="rgb(0, 0, 0)"/>
    <rect x="23" y="10" width="1" height="1" fill="rgb(0, 0, 0)"/>
    <rect x="24" y="10" width="1" height="1" fill="rgb(14, 14, 14)"/>
    <rect x="25" y="10" width="1" height="1" fill="rgb(58, 58, 58)"/>
    <rect x="26" y="10" width="1" height="1" fill="rgb(121, 121, 121)"/>
    <rect x="0" y="11" width="1" height="1" fill="rgb(250, 250, 250)"/>
    <rect x="1" y="11" width="1" height="1" fill="rgb(130, 130, 130)"/>
    <rect x="2" y="11" width="1" height="1" fill="rgb(32, 32, 32)"/>
    <rect x="3" y="11" width="1" height="1" fill="rgb(0, 0, 0)"/>
    <rect x="4" y="11" width="1" height="1" fill="rgb(0, 0, 0)"/>
    <rect x="5" y="11" width="1" height="1" fill="rgb(0, 0, 0)"/>
    <rect x="6" y="11" width="1" height="1" fill="rgb(0, 0, 0)"/>
    <rect x="7" y="11" width="1" height="1" fill="rgb(0, 0, 0)"/>
    <rect x="8" y="11" width="1" height="1" fill="rgb(0, 0, 0)"/>
    <rect x="9" y="11" width="1" height="1" fill="rgb(0, 0, 0)"/>
    <rect x="10" y="11" width="1" height="1" fill="rgb(0, 0, 0)"/>
    <rect x="11" y="11" width="1" height="1" fill="rgb(0, 0, 0)"/>
    <rect x="12" y="11" width="1" height="1" fill="rgb(0, 0, 0)"/>
    <rect x="13" y="11" width="1" height="1" fill="rgb(0, 0, 0)"/>
    <rect x="14" y="11" width="1" height="1" fill="rgb(0, 0, 0)"/>
    <rect x="15" y="11" width="1" height="1" fill="rgb(0, 0, 0)"/>
    <rect x="16" y="11" width="1" height="1" fill="rgb(0, 0, 0)"/>
    <rect x="17" y="11" width="1" height="1" fill="rgb(0, 0, 0)"/>
    <rect x="18" y="11" width="1" height="1" fill="rgb(0, 0, 0)"/>
    <rect x="19" y="11" width="1" height="1" fill="rgb(0, 0, 0)"/>
    <rect x="20" y="11" width="1" height="1" fill="rgb(0, 0, 0)"/>
    <rect x="21" y="11" width="1" height="1" fill="rgb(0, 0, 0)"/>
    <rect x="22" y="11" width="1" height="1" fill="rgb(0, 0, 0)"/>
    <rect x="23" y="11" width="1" height="1" fill="rgb(0, 0, 0)"/>
    <rect x="24" y="11" width="1" height="1" fill="rgb(4, 4, 4)"/>
    <rect x="25" y="11" width="1" height="1" fill="rgb(54, 54, 54)"/>
    <rect x="26" y="11" width="1" height="1" fill="rgb(117, 117, 117)"/>
    <rect x="0" y="12" width="1" height="1" fill="rgb(250, 250, 250)"/>
    <rect x="1" y="12" width="1" height="1" fill="rgb(138, 138, 138)"/>
    <rect x="2" y="12" width="1" height="1" fill="rgb(38, 38, 38)"/>
    <rect x="3" y="12" width="1" height="1" fill="rgb(5, 5, 5)"/>
    <rect x="4" y="12" width="1" height="1" fill="rgb(4, 4, 4)"/>
    <rect x="5" y="12" width="1" height="1" fill="rgb(4, 4, 4)"/>
    <rect x="6" y="12" width="1" height="1" fill="rgb(4, 4, 4)"/>
    <rect x="7" y="12" width="1" height="1" fill="rgb(4, 4, 4)"/>
    <rect x="8" y="12" width="1" height="1" fill="rgb(4, 4, 4)"/>
    <rect x="9" y="12" width="1" height="1" fill="rgb(4, 4, 4)"/>
    <rect x="10" y="12" width="1" height="1" fill="rgb(4, 4, 4)"/>
    <rect x="11" y="12" width="1" height="1" fill="rgb(4, 4, 4)"/>
    <rect x="12" y="12" width="1" height="1" fill="rgb(4, 4, 4)"/>
    <rect x="13" y="12" width="1" height="1" fill="rgb(4, 4, 4)"/>
    <rect x="14" y="12" width="1" height="1" fill="rgb(4, 4, 4)"/>
    <rect x="15" y="12" width="1" height="1" fill="rgb(4, 4, 4)"/>
    <rect x="16" y="12" width="1" height="1" fill="rgb(4, 4, 4)"/>
    <rect x="17" y="12" width="1" height="1" fill="rgb(4, 4, 4)"/>
    <rect x="18" y="12" width="1" height="1" fill="rgb(4, 4, 4)"/>
    <rect x="19" y="12" width="1" height="1" fill="rgb(4, 4, 4)"/>
    <rect x="20" y="12" width="1" height="1" fill="rgb(4, 4, 4)"/>
    <rect x="21" y="12" width="1" height="1" fill="rgb(4, 4, 4)"/>
    <rect x="22" y="12" width="1" height="1" fill="rgb(4, 4, 4)"/>
    <rect x="23" y="12" width="1" height="1" fill="rgb(4, 4, 4)"/>
    <rect x="24" y="12" width="1" height="1" fill="rgb(10, 10, 10)"/>
    <rect x="25" y="12" width="1" height="1" fill="rgb(60, 60, 60)"/>
    <rect x="26" y="12" width="1" height="1" fill="rgb(123, 123, 123)"/>
    <rect x="0" y="13" width="1" height="1" fill="rgb(250, 250, 250)"/>
    <rect x="1" y="13" width="1" height="1" fill="rgb(151, 151, 151)"/>
    <rect x="2" y="13" width="1" height="1" fill="rgb(65, 65, 65)"/>
    <rect x="3" y="13" width="1" height="1" fill="rgb(21, 21, 21)"/>
    <rect x="4" y="13" width="1" height="1" fill="rgb(20, 20, 20)"/>
    <rect x="5" y="13" width="1" height="1" fill="rgb(22, 22, 22)"/>
    <rect x="6" y="13" width="1" height="1" fill="rgb(22, 22, 22)"/>
    <rect x="7" y="13" width="1" height="1" fill="rgb(20, 20, 20)"/>
    <rect x="8" y="13" width="1" height="1" fill="rgb(20, 20, 20)"/>
    <rect x="9" y="13" width="1" height="1" fill="rgb(20, 20, 20)"/>
    <rect x="10" y="13" width="1" height="1" fill="rgb(20, 20, 20)"/>
    <rect x="11" y="13" width="1" height="1" fill="rgb(20, 20, 20)"/>
    <rect x="12" y="13" width="1" height="1" fill="rgb(20, 20, 20)"/>
    <rect x="13" y="13" width="1" height="1" fill="rgb(20, 20, 20)"/>
    <rect x="14" y="13" width="1" height="1" fill="rgb(20, 20, 20)"/>
    <rect x="15" y="13" width="1" height="1" fill="rgb(20, 20, 20)"/>
    <rect x="16" y="13" width="1" height="1" fill="rgb(20, 20, 20)"/>
    <rect x="17" y="13" width="1" height="1" fill="rgb(20, 20, 20)"/>
    <rect x="18" y="13" width="1" height="1" fill="rgb(20, 20, 20)"/>
    <rect x="19" y="13" width="1" height="1" fill="rgb(20, 20, 20)"/>
    <rect x="20" y="13" width="1" height="1" fill="rgb(20, 20, 20)"/>
    <rect x="21" y="13" width="1" height="1" fill="rgb(20, 20, 20)"/>
    <rect x="22" y="13" width="1" height="1" fill="rgb(20, 20, 20)"/>
    <rect x="23" y="13" width="1" height="1" fill="rgb(21, 21, 21)"/>
    <rect x="24" y="13" width="1" height="1" fill="rgb(42, 42, 42)"/>
    <rect x="25" y="13" width="1" height="1" fill="rgb(86, 86, 86)"/>
    <rect x="26" y="13" width="1" height="1" fill="rgb(139, 139, 139)"/>
    <rect x="0" y="14" width="1" height="1" fill="rgb(251, 251, 251)"/>
    <rect x="1" y="14" width="1" height="1" fill="rgb(169, 169, 169)"/>
    <rect x="2" y="14" width="1" height="1" fill="rgb(107, 107, 107)"/>
    <rect x="3" y="14" width="1" height="1" fill="rgb(77, 77, 77)"/>
    <rect x="4" y="14" width="1" height="1" fill="rgb(77, 77, 77)"/>
    <rect x="5" y="14" width="1" height="1" fill="rgb(79, 79, 79)"/>
    <rect x="6" y="14" width="1" height="1" fill="rgb(77, 77, 77)"/>
    <rect x="7" y="14" width="1" height="1" fill="rgb(77, 77, 77)"/>
    <rect x="8" y="14" width="1" height="1" fill="rgb(77, 77, 77)"/>
    <rect x="9" y="14" width="1" height="1" fill="rgb(77, 77, 77)"/>
    <rect x="10" y="14" width="1" height="1" fill="rgb(77, 77, 77)"/>
    <rect x="11" y="14" width="1" height="1" fill="rgb(77, 77, 77)"/>
    <rect x="12" y="14" width="1" height="1" fill="rgb(77, 77, 77)"/>
    <rect x="13" y="14" width="1" height="1" fill="rgb(77, 77, 77)"/>
    <rect x="14" y="14" width="1" height="1" fill="rgb(77, 77, 77)"/>
    <rect x="15" y="14" width="1" height="1" fill="rgb(77, 77, 77)"/>
    <rect x="16" y="14" width="1" height="1" fill="rgb(77, 77, 77)"/>
    <rect x="17" y="14" width="1" height="1" fill="rgb(77, 77, 77)"/>
    <rect x="18" y="14" width="1" height="1" fill="rgb(77, 77, 77)"/>
    <rect x="19" y="14" width="1" height="1" fill="rgb(77, 77, 77)"/>
    <rect x="20" y="14" width="1" height="1" fill="rgb(77, 77, 77)"/>
    <rect x="21" y="14" width="1" height="1" fill="rgb(77, 77, 77)"/>
    <rect x="22" y="14" width="1" height="1" fill="rgb(77, 77, 77)"/>
    <rect x="23" y="14" width="1" height="1" fill="rgb(77, 77, 77)"/>
    <rect x="24" y="14" width="1" height="1" fill="rgb(92, 92, 92)"/>
    <rect x="25" y="14" width="1" height="1" fill="rgb(124, 124, 124)"/>
    <rect x="26" y="14" width="1" height="1" fill="rgb(167, 167, 167)"/>
    <rect x="0" y="15" width="1" height="1" fill="rgb(251, 251, 251)"/>
    <rect x="1" y="15" width="1" height="1" fill="rgb(187, 187, 187)"/>
    <rect x="2" y="15" width="1" height="1" fill="rgb(150, 150, 150)"/>
    <rect x="3" y="15" width="1" height="1" fill="rgb(134, 134, 134)"/>
    <rect x="4" y="15" width="1" height="1" fill="rgb(134, 134, 134)"/>
    <rect x="5" y="15" width="1" height="1" fill="rgb(136, 136, 136)"/>
    <rect x="6" y="15" width="1" height="1" fill="rgb(136, 136, 136)"/>
    <rect x="7" y="15" width="1" height="1" fill="rgb(134, 134, 134)"/>
    <rect x="8" y="15" width="1" height="1" fill="rgb(134, 134, 134)"/>
    <rect x="9" y="15" width="1" height="1" fill="rgb(134, 134, 134)"/>
    <rect x="10" y="15" width="1" height="1" fill="rgb(134, 134, 134)"/>
    <rect x="11" y="15" width="1" height="1" fill="rgb(134, 134, 134)"/>
    <rect x="12" y="15" width="1" height="1" fill="rgb(134, 134, 134)"/>
    <rect x="13" y="15" width="1" height="1" fill="rgb(134, 134, 134)"/>
    <rect x="14" y="15" width="1" height="1" fill="rgb(134, 134, 134)"/>
    <rect x="15" y="15" width="1" height="1" fill="rgb(134, 134, 134)"/>
    <rect x="16" y="15" width="1" height="1" fill="rgb(134, 134, 134)"/>
    <rect x="17" y="15" width="1" height="1" fill="rgb(134, 134, 134)"/>
    <rect x="18" y="15" width="1" height="1" fill="rgb(134, 134, 134)"/>
    <rect x="19" y="15" width="1" height="1" fill="rgb(134, 134, 134)"/>
    <rect x="20" y="15" width="1" height="1" fill="rgb(134, 134, 134)"/>
    <rect x="21" y="15" width="1" height="1" fill="rgb(134, 134, 134)"/>
    <rect x="22" y="15" width="1" height="1" fill="rgb(134, 134, 134)"/>
    <rect x="23" y="15" width="1" height="1" fill="rgb(134, 134, 134)"/>
    <rect x="24" y="15" width="1" height="1" fill="rgb(143, 143, 143)"/>
    <rect x="25" y="15" width="1" height="1" fill="rgb(161, 161, 161)"/>
    <rect x="26" y="15" width="1" height="1" fill="rgb(195, 195, 195)"/>
    <rect x="0" y="16" width="1" height="1" fill="rgb(252, 252, 252)"/>
    <rect x="1" y="16" width="1" height="1" fill="rgb(202, 202, 202)"/>
    <rect x="2" y="16" width="1" height="1" fill="rgb(185, 185, 185)"/>
    <rect x="3" y="16" width="1" height="1" fill="rgb(182, 182, 182)"/>
    <rect x="4" y="16" width="1" height="1" fill="rgb(181, 181, 181)"/>
    <rect x="5" y="16" width="1" height="1" fill="rgb(181, 181, 181)"/>
    <rect x="6" y="16" width="1" height="1" fill="rgb(181, 181, 181)"/>
    <rect x="7" y="16" width="1" height="1" fill="rgb(181, 181, 181)"/>
    <rect x="8" y="16" width="1" height="1" fill="rgb(181, 181, 181)"/>
    <rect x="9" y="16" width="1" height="1" fill="rgb(181, 181, 181)"/>
    <rect x="10" y="16" width="1" height="1" fill="rgb(181, 181, 181)"/>
    <rect x="11" y="16" width="1" height="1" fill="rgb(181, 181, 181)"/>
    <rect x="12" y="16" width="1" height="1" fill="rgb(181, 181, 181)"/>
    <rect x="13" y="16" width="1" height="1" fill="rgb(181, 181, 181)"/>
    <rect x="14" y="16" width="1" height="1" fill="rgb(181, 181, 181)"/>
    <rect x="15" y="16" width="1" height="1" fill="rgb(181, 181, 181)"/>
    <rect x="16" y="16" width="1" height="1" fill="rgb(181, 181, 181)"/>
    <rect x="17" y="16" width="1" height="1" fill="rgb(181, 181, 181)"/>
    <rect x="18" y="16" width="1" height="1" fill="rgb(181, 181, 181)"/>
    <rect x="19" y="16" width="1" height="1" fill="rgb(181, 181, 181)"/>
    <rect x="20" y="16" width="1" height="1" fill="rgb(181, 181, 181)"/>
    <rect x="21" y="16" width="1" height="1" fill="rgb(181, 181, 181)"/>
    <rect x="22" y="16" width="1" height="1" fill="rgb(181, 181, 181)"/>
    <rect x="23" y="16" width="1" height="1" fill="rgb(182, 182, 182)"/>
    <rect x="24" y="16" width="1" height="1" fill="rgb(184, 184, 184)"/>
    <rect x="25" y="16" width="1" height="1" fill="rgb(192, 192, 192)"/>
    <rect x="26" y="16" width="1" height="1" fill="rgb(218, 218, 218)"/>
    <rect x="0" y="17" width="1" height="1" fill="rgb(252, 252, 252)"/>
    <rect x="1" y="17" width="1" height="1" fill="rgb(212, 212, 212)"/>
    <rect x="2" y="17" width="1" height="1" fill="rgb(205, 205, 205)"/>
    <rect x="3" y="17" width="1" height="1" fill="rgb(208, 208, 208)"/>
    <rect x="4" y="17" width="1" height="1" fill="rgb(207, 207, 207)"/>
    <rect x="5" y="17" width="1" height="1" fill="rgb(207, 207, 207)"/>
    <rect x="6" y="17" width="1" height="1" fill="rgb(207, 207, 207)"/>
    <rect x="7" y="17" width="1" height="1" fill="rgb(207, 207, 207)"/>
    <rect x="8" y="17" width="1" height="1" fill="rgb(207, 207, 207)"/>
    <rect x="9" y="17" width="1" height="1" fill="rgb(207, 207, 207)"/>
    <rect x="10" y="17" width="1" height="1" fill="rgb(207, 207, 207)"/>
    <rect x="11" y="17" width="1" height="1" fill="rgb(207, 207, 207)"/>
    <rect x="12" y="17" width="1" height="1" fill="rgb(207, 207, 207)"/>
    <rect x="13" y="17" width="1" height="1" fill="rgb(207, 207, 207)"/>
    <rect x="14" y="17" width="1" height="1" fill="rgb(207, 207, 207)"/>
    <rect x="15" y="17" width="1" height="1" fill="rgb(207, 207, 207)"/>
    <rect x="16" y="17" width="1" height="1" fill="rgb(207, 207, 207)"/>
    <rect x="17" y="17" width="1" height="1" fill="rgb(207, 207, 207)"/>
    <rect x="18" y="17" width="1" height="1" fill="rgb(207, 207, 207)"/>
    <rect x="19" y="17" width="1" height="1" fill="rgb(207, 207, 207)"/>
    <rect x="20" y="17" width="1" height="1" fill="rgb(207, 207, 207)"/>
    <rect x="21" y="17" width="1" height="1" fill="rgb(207, 207, 207)"/>
    <rect x="22" y="17" width="1" height="1" fill="rgb(207, 207, 207)"/>
    <rect x="23" y="17" width="1" height="1" fill="rgb(208, 208, 208)"/>
    <rect x="24" y="17" width="1" height="1" fill="rgb(206, 206, 206)"/>
    <rect x="25" y="17" width="1" height="1" fill="rgb(210, 210, 210)"/>
    <rect x="26" y="17" width="1" height="1" fill="rgb(230, 230, 230)"/>
    <rect x="0" y="18" width="1" height="1" fill="rgb(252, 252, 252)"/>
    <rect x="1" y="18" width="1" height="1" fill="rgb(214, 214, 214)"/>
    <rect x="2" y="18" width="1" height="1" fill="rgb(208, 208, 208)"/>
    <rect x="3" y="18" width="1" height="1" fill="rgb(211, 211, 211)"/>
    <rect x="4" y="18" width="1" height="1" fill="rgb(210, 210, 210)"/>
    <rect x="5" y="18" width="1" height="1" fill="rgb(210, 210, 210)"/>
    <rect x="6" y="18" width="1" height="1" fill="rgb(210, 210, 210)"/>
    <rect x="7" y="18" width="1" height="1" fill="rgb(210, 210, 210)"/>
    <rect x="8" y="18" width="1" height="1" fill="rgb(210, 210, 210)"/>
    <rect x="9" y="18" width="1" height="1" fill="rgb(210, 210, 210)"/>
    <rect x="10" y="18" width="1" height="1" fill="rgb(210, 210, 210)"/>
    <rect x="11" y="18" width="1" height="1" fill="rgb(210, 210, 210)"/>
    <rect x="12" y="18" width="1" height="1" fill="rgb(210, 210, 210)"/>
    <rect x="13" y="18" width="1" height="1" fill="rgb(210, 210, 210)"/>
    <rect x="14" y="18" width="1" height="1" fill="rgb(210, 210, 210)"/>
    <rect x="15" y="18" width="1" height="1" fill="rgb(210, 210, 210)"/>
    <rect x="16" y="18" width="1" height="1" fill="rgb(210, 210, 210)"/>
    <rect x="17" y="18" width="1" height="1" fill="rgb(210, 210, 210)"/>
    <rect x="18" y="18" width="1" height="1" fill="rgb(210, 210, 210)"/>
    <rect x="19" y="18" width="1" height="1" fill="rgb(210, 210, 210)"/>
    <rect x="20" y="18" width="1" height="1" fill="rgb(210, 210, 210)"/>
    <rect x="21" y="18" width="1" height="1" fill="rgb(210, 210, 210)"/>
    <rect x="22" y="18" width="1" height="1" fill="rgb(210, 210, 210)"/>
    <rect x="23" y="18" width="1" height="1" fill="rgb(211, 211, 211)"/>
    <rect x="24" y="18" width="1" height="1" fill="rgb(209, 209, 209)"/>
    <rect x="25" y="18" width="1" height="1" fill="rgb(212, 212, 212)"/>
    <rect x="26" y="18" width="1" height="1" fill="rgb(232, 232, 232)"/>
</svg>