<svg version="1.1" viewBox="0 0 27 28" xmlns="http://www.w3.org/2000/svg"><rect x="0" y="0" width="1" height="1" fill="white"/><rect x="1" y="0" width="1" height="1" fill="white"/><rect x="2" y="0" width="1" height="1" fill="white"/><rect x="3" y="0" width="1" height="1" fill="white"/><rect x="4" y="0" width="1" height="1" fill="white"/><rect x="5" y="0" width="1" height="1" fill="white"/><rect x="6" y="0" width="1" height="1" fill="white"/><rect x="7" y="0" width="1" height="1" fill="white"/><rect x="8" y="0" width="1" height="1" fill="white"/><rect x="9" y="0" width="1" height="1" fill="white"/><rect x="10" y="0" width="1" height="1" fill="white"/><rect x="11" y="0" width="1" height="1" fill="white"/><rect x="12" y="0" width="1" height="1" fill="white"/><rect x="13" y="0" width="1" height="1" fill="rgb(253, 253, 253)"/><rect x="14" y="0" width="1" height="1" fill="white"/><rect x="15" y="0" width="1" height="1" fill="rgb(251, 251, 251)"/><rect x="16" y="0" width="1" height="1" fill="rgb(187, 187, 187)"/><rect x="17" y="0" width="1" height="1" fill="rgb(85, 85, 85)"/><rect x="18" y="0" width="1" height="1" fill="rgb(89, 89, 89)"/><rect x="19" y="0" width="1" height="1" fill="rgb(126, 126, 126)"/><rect x="20" y="0" width="1" height="1" fill="rgb(227, 227, 227)"/><rect x="21" y="0" width="1" height="1" fill="white"/><rect x="22" y="0" width="1" height="1" fill="rgb(252, 252, 252)"/><rect x="23" y="0" width="1" height="1" fill="white"/><rect x="24" y="0" width="1" height="1" fill="white"/><rect x="25" y="0" width="1" height="1" fill="white"/><rect x="26" y="0" width="1" height="1" fill="white"/><rect x="0" y="1" width="1" height="1" fill="white"/><rect x="1" y="1" width="1" height="1" fill="white"/><rect x="2" y="1" width="1" height="1" fill="white"/><rect x="3" y="1" width="1" height="1" fill="white"/><rect x="4" y="1" width="1" height="1" fill="white"/><rect x="5" y="1" width="1" height="1" fill="white"/><rect x="6" y="1" width="1" height="1" fill="white"/><rect x="7" y="1" width="1" height="1" fill="white"/><rect x="8" y="1" width="1" height="1" fill="white"/><rect x="9" y="1" width="1" height="1" fill="white"/><rect x="10" y="1" width="1" height="1" fill="white"/><rect x="11" y="1" width="1" height="1" fill="white"/><rect x="12" y="1" width="1" height="1" fill="white"/><rect x="13" y="1" width="1" height="1" fill="rgb(251, 251, 251)"/><rect x="14" y="1" width="1" height="1" fill="rgb(253, 253, 253)"/><rect x="15" y="1" width="1" height="1" fill="rgb(232, 232, 232)"/><rect x="16" y="1" width="1" height="1" fill="rgb(130, 130, 130)"/><rect x="17" y="1" width="1" height="1" fill="rgb(82, 82, 82)"/><rect x="18" y="1" width="1" height="1" fill="rgb(20, 20, 20)"/><rect x="19" y="1" width="1" height="1" fill="rgb(55, 55, 55)"/><rect x="20" y="1" width="1" height="1" fill="rgb(205, 205, 205)"/><rect x="21" y="1" width="1" height="1" fill="rgb(253, 253, 253)"/><rect x="22" y="1" width="1" height="1" fill="rgb(251, 251, 251)"/><rect x="23" y="1" width="1" height="1" fill="rgb(254, 254, 254)"/><rect x="24" y="1" width="1" height="1" fill="white"/><rect x="25" y="1" width="1" height="1" fill="white"/><rect x="26" y="1" width="1" height="1" fill="white"/><rect x="0" y="2" width="1" height="1" fill="white"/><rect x="1" y="2" width="1" height="1" fill="white"/><rect x="2" y="2" width="1" height="1" fill="white"/><rect x="3" y="2" width="1" height="1" fill="white"/><rect x="4" y="2" width="1" height="1" fill="rgb(254, 254, 254)"/><rect x="5" y="2" width="1" height="1" fill="rgb(254, 254, 254)"/><rect x="6" y="2" width="1" height="1" fill="rgb(254, 254, 254)"/><rect x="7" y="2" width="1" height="1" fill="rgb(254, 254, 254)"/><rect x="8" y="2" width="1" height="1" fill="rgb(254, 254, 254)"/><rect x="9" y="2" width="1" height="1" fill="rgb(254, 254, 254)"/><rect x="10" y="2" width="1" height="1" fill="rgb(254, 254, 254)"/><rect x="11" y="2" width="1" height="1" fill="white"/><rect x="12" y="2" width="1" height="1" fill="rgb(253, 253, 253)"/><rect x="13" y="2" width="1" height="1" fill="rgb(253, 253, 253)"/><rect x="14" y="2" width="1" height="1" fill="rgb(254, 254, 254)"/><rect x="15" y="2" width="1" height="1" fill="rgb(206, 206, 206)"/><rect x="16" y="2" width="1" height="1" fill="rgb(86, 86, 86)"/><rect x="17" y="2" width="1" height="1" fill="rgb(59, 59, 59)"/><rect x="18" y="2" width="1" height="1" fill="rgb(2, 2, 2)"/><rect x="19" y="2" width="1" height="1" fill="rgb(85, 85, 85)"/><rect x="20" y="2" width="1" height="1" fill="rgb(162, 162, 162)"/><rect x="21" y="2" width="1" height="1" fill="rgb(213, 213, 213)"/><rect x="22" y="2" width="1" height="1" fill="rgb(253, 253, 253)"/><rect x="23" y="2" width="1" height="1" fill="rgb(254, 254, 254)"/><rect x="24" y="2" width="1" height="1" fill="rgb(254, 254, 254)"/><rect x="25" y="2" width="1" height="1" fill="rgb(254, 254, 254)"/><rect x="26" y="2" width="1" height="1" fill="white"/><rect x="0" y="3" width="1" height="1" fill="white"/><rect x="1" y="3" width="1" height="1" fill="rgb(254, 254, 254)"/><rect x="2" y="3" width="1" height="1" fill="rgb(253, 253, 253)"/><rect x="3" y="3" width="1" height="1" fill="rgb(252, 252, 252)"/><rect x="4" y="3" width="1" height="1" fill="rgb(254, 254, 254)"/><rect x="5" y="3" width="1" height="1" fill="white"/><rect x="6" y="3" width="1" height="1" fill="white"/><rect x="7" y="3" width="1" height="1" fill="white"/><rect x="8" y="3" width="1" height="1" fill="white"/><rect x="9" y="3" width="1" height="1" fill="white"/><rect x="10" y="3" width="1" height="1" fill="rgb(253, 253, 253)"/><rect x="11" y="3" width="1" height="1" fill="rgb(253, 253, 253)"/><rect x="12" y="3" width="1" height="1" fill="rgb(251, 251, 251)"/><rect x="13" y="3" width="1" height="1" fill="rgb(253, 253, 253)"/><rect x="14" y="3" width="1" height="1" fill="rgb(238, 238, 238)"/><rect x="15" y="3" width="1" height="1" fill="rgb(159, 159, 159)"/><rect x="16" y="3" width="1" height="1" fill="rgb(78, 78, 78)"/><rect x="17" y="3" width="1" height="1" fill="rgb(20, 20, 20)"/><rect x="18" y="3" width="1" height="1" fill="rgb(5, 5, 5)"/><rect x="19" y="3" width="1" height="1" fill="rgb(140, 140, 140)"/><rect x="20" y="3" width="1" height="1" fill="rgb(175, 175, 175)"/><rect x="21" y="3" width="1" height="1" fill="rgb(229, 229, 229)"/><rect x="22" y="3" width="1" height="1" fill="white"/><rect x="23" y="3" width="1" height="1" fill="rgb(252, 252, 252)"/><rect x="24" y="3" width="1" height="1" fill="rgb(254, 254, 254)"/><rect x="25" y="3" width="1" height="1" fill="rgb(254, 254, 254)"/><rect x="26" y="3" width="1" height="1" fill="white"/><rect x="0" y="4" width="1" height="1" fill="rgb(252, 252, 252)"/><rect x="1" y="4" width="1" height="1" fill="rgb(250, 250, 250)"/><rect x="2" y="4" width="1" height="1" fill="rgb(252, 252, 252)"/><rect x="3" y="4" width="1" height="1" fill="rgb(252, 252, 252)"/><rect x="4" y="4" width="1" height="1" fill="rgb(250, 250, 250)"/><rect x="5" y="4" width="1" height="1" fill="rgb(236, 236, 236)"/><rect x="6" y="4" width="1" height="1" fill="rgb(231, 231, 231)"/><rect x="7" y="4" width="1" height="1" fill="rgb(230, 230, 230)"/><rect x="8" y="4" width="1" height="1" fill="rgb(234, 234, 234)"/><rect x="9" y="4" width="1" height="1" fill="rgb(243, 243, 243)"/><rect x="10" y="4" width="1" height="1" fill="rgb(252, 252, 252)"/><rect x="11" y="4" width="1" height="1" fill="rgb(252, 252, 252)"/><rect x="12" y="4" width="1" height="1" fill="rgb(250, 250, 250)"/><rect x="13" y="4" width="1" height="1" fill="rgb(252, 252, 252)"/><rect x="14" y="4" width="1" height="1" fill="rgb(212, 212, 212)"/><rect x="15" y="4" width="1" height="1" fill="rgb(99, 99, 99)"/><rect x="16" y="4" width="1" height="1" fill="rgb(59, 59, 59)"/><rect x="17" y="4" width="1" height="1" fill="rgb(1, 1, 1)"/><rect x="18" y="4" width="1" height="1" fill="rgb(49, 49, 49)"/><rect x="19" y="4" width="1" height="1" fill="rgb(157, 157, 157)"/><rect x="20" y="4" width="1" height="1" fill="rgb(205, 205, 205)"/><rect x="21" y="4" width="1" height="1" fill="rgb(243, 243, 243)"/><rect x="22" y="4" width="1" height="1" fill="rgb(250, 250, 250)"/><rect x="23" y="4" width="1" height="1" fill="rgb(249, 249, 249)"/><rect x="24" y="4" width="1" height="1" fill="rgb(252, 252, 252)"/><rect x="25" y="4" width="1" height="1" fill="rgb(251, 251, 251)"/><rect x="26" y="4" width="1" height="1" fill="white"/><rect x="0" y="5" width="1" height="1" fill="white"/><rect x="1" y="5" width="1" height="1" fill="white"/><rect x="2" y="5" width="1" height="1" fill="rgb(234, 234, 234)"/><rect x="3" y="5" width="1" height="1" fill="rgb(208, 208, 208)"/><rect x="4" y="5" width="1" height="1" fill="rgb(195, 195, 195)"/><rect x="5" y="5" width="1" height="1" fill="rgb(187, 187, 187)"/><rect x="6" y="5" width="1" height="1" fill="rgb(184, 184, 184)"/><rect x="7" y="5" width="1" height="1" fill="rgb(184, 184, 184)"/><rect x="8" y="5" width="1" height="1" fill="rgb(186, 186, 186)"/><rect x="9" y="5" width="1" height="1" fill="rgb(191, 191, 191)"/><rect x="10" y="5" width="1" height="1" fill="rgb(197, 197, 197)"/><rect x="11" y="5" width="1" height="1" fill="rgb(209, 209, 209)"/><rect x="12" y="5" width="1" height="1" fill="rgb(227, 227, 227)"/><rect x="13" y="5" width="1" height="1" fill="rgb(243, 243, 243)"/><rect x="14" y="5" width="1" height="1" fill="rgb(178, 178, 178)"/><rect x="15" y="5" width="1" height="1" fill="rgb(73, 73, 73)"/><rect x="16" y="5" width="1" height="1" fill="rgb(21, 21, 21)"/><rect x="17" y="5" width="1" height="1" fill="rgb(2, 2, 2)"/><rect x="18" y="5" width="1" height="1" fill="rgb(130, 130, 130)"/><rect x="19" y="5" width="1" height="1" fill="rgb(169, 169, 169)"/><rect x="20" y="5" width="1" height="1" fill="rgb(235, 235, 235)"/><rect x="21" y="5" width="1" height="1" fill="white"/><rect x="22" y="5" width="1" height="1" fill="rgb(253, 253, 253)"/><rect x="23" y="5" width="1" height="1" fill="white"/><rect x="24" y="5" width="1" height="1" fill="rgb(224, 224, 224)"/><rect x="25" y="5" width="1" height="1" fill="rgb(205, 205, 205)"/><rect x="26" y="5" width="1" height="1" fill="white"/><rect x="0" y="6" width="1" height="1" fill="rgb(222, 222, 222)"/><rect x="1" y="6" width="1" height="1" fill="rgb(171, 171, 171)"/><rect x="2" y="6" width="1" height="1" fill="rgb(137, 137, 137)"/><rect x="3" y="6" width="1" height="1" fill="rgb(98, 98, 98)"/><rect x="4" y="6" width="1" height="1" fill="rgb(66, 66, 66)"/><rect x="5" y="6" width="1" height="1" fill="rgb(50, 50, 50)"/><rect x="6" y="6" width="1" height="1" fill="rgb(42, 42, 42)"/><rect x="7" y="6" width="1" height="1" fill="rgb(40, 40, 40)"/><rect x="8" y="6" width="1" height="1" fill="rgb(45, 45, 45)"/><rect x="9" y="6" width="1" height="1" fill="rgb(57, 57, 57)"/><rect x="10" y="6" width="1" height="1" fill="rgb(74, 74, 74)"/><rect x="11" y="6" width="1" height="1" fill="rgb(98, 98, 98)"/><rect x="12" y="6" width="1" height="1" fill="rgb(130, 130, 130)"/><rect x="13" y="6" width="1" height="1" fill="rgb(144, 144, 144)"/><rect x="14" y="6" width="1" height="1" fill="rgb(113, 113, 113)"/><rect x="15" y="6" width="1" height="1" fill="rgb(55, 55, 55)"/><rect x="16" y="6" width="1" height="1" fill="rgb(0, 0, 0)"/><rect x="17" y="6" width="1" height="1" fill="rgb(17, 17, 17)"/><rect x="18" y="6" width="1" height="1" fill="rgb(118, 118, 118)"/><rect x="19" y="6" width="1" height="1" fill="rgb(163, 163, 163)"/><rect x="20" y="6" width="1" height="1" fill="rgb(202, 202, 202)"/><rect x="21" y="6" width="1" height="1" fill="rgb(202, 202, 202)"/><rect x="22" y="6" width="1" height="1" fill="rgb(181, 181, 181)"/><rect x="23" y="6" width="1" height="1" fill="rgb(165, 165, 165)"/><rect x="24" y="6" width="1" height="1" fill="rgb(121, 121, 121)"/><rect x="25" y="6" width="1" height="1" fill="rgb(101, 101, 101)"/><rect x="26" y="6" width="1" height="1" fill="rgb(251, 251, 251)"/><rect x="0" y="7" width="1" height="1" fill="rgb(171, 171, 171)"/><rect x="1" y="7" width="1" height="1" fill="rgb(71, 71, 71)"/><rect x="2" y="7" width="1" height="1" fill="rgb(18, 18, 18)"/><rect x="3" y="7" width="1" height="1" fill="rgb(0, 0, 0)"/><rect x="4" y="7" width="1" height="1" fill="rgb(0, 0, 0)"/><rect x="5" y="7" width="1" height="1" fill="rgb(0, 0, 0)"/><rect x="6" y="7" width="1" height="1" fill="rgb(0, 0, 0)"/><rect x="7" y="7" width="1" height="1" fill="rgb(0, 0, 0)"/><rect x="8" y="7" width="1" height="1" fill="rgb(0, 0, 0)"/><rect x="9" y="7" width="1" height="1" fill="rgb(0, 0, 0)"/><rect x="10" y="7" width="1" height="1" fill="rgb(0, 0, 0)"/><rect x="11" y="7" width="1" height="1" fill="rgb(1, 1, 1)"/><rect x="12" y="7" width="1" height="1" fill="rgb(5, 5, 5)"/><rect x="13" y="7" width="1" height="1" fill="rgb(38, 38, 38)"/><rect x="14" y="7" width="1" height="1" fill="rgb(53, 53, 53)"/><rect x="15" y="7" width="1" height="1" fill="rgb(23, 23, 23)"/><rect x="16" y="7" width="1" height="1" fill="rgb(0, 0, 0)"/><rect x="17" y="7" width="1" height="1" fill="rgb(14, 14, 14)"/><rect x="18" y="7" width="1" height="1" fill="rgb(41, 41, 41)"/><rect x="19" y="7" width="1" height="1" fill="rgb(116, 116, 116)"/><rect x="20" y="7" width="1" height="1" fill="rgb(126, 126, 126)"/><rect x="21" y="7" width="1" height="1" fill="rgb(114, 114, 114)"/><rect x="22" y="7" width="1" height="1" fill="rgb(97, 97, 97)"/><rect x="23" y="7" width="1" height="1" fill="rgb(67, 67, 67)"/><rect x="24" y="7" width="1" height="1" fill="rgb(13, 13, 13)"/><rect x="25" y="7" width="1" height="1" fill="rgb(30, 30, 30)"/><rect x="26" y="7" width="1" height="1" fill="rgb(252, 252, 252)"/><rect x="0" y="8" width="1" height="1" fill="rgb(137, 137, 137)"/><rect x="1" y="8" width="1" height="1" fill="rgb(21, 21, 21)"/><rect x="2" y="8" width="1" height="1" fill="rgb(0, 0, 0)"/><rect x="3" y="8" width="1" height="1" fill="rgb(5, 5, 5)"/><rect x="4" y="8" width="1" height="1" fill="rgb(17, 17, 17)"/><rect x="5" y="8" width="1" height="1" fill="rgb(26, 26, 26)"/><rect x="6" y="8" width="1" height="1" fill="rgb(30, 30, 30)"/><rect x="7" y="8" width="1" height="1" fill="rgb(29, 29, 29)"/><rect x="8" y="8" width="1" height="1" fill="rgb(25, 25, 25)"/><rect x="9" y="8" width="1" height="1" fill="rgb(18, 18, 18)"/><rect x="10" y="8" width="1" height="1" fill="rgb(9, 9, 9)"/><rect x="11" y="8" width="1" height="1" fill="rgb(0, 0, 0)"/><rect x="12" y="8" width="1" height="1" fill="rgb(0, 0, 0)"/><rect x="13" y="8" width="1" height="1" fill="rgb(3, 3, 3)"/><rect x="14" y="8" width="1" height="1" fill="rgb(2, 2, 2)"/><rect x="15" y="8" width="1" height="1" fill="rgb(0, 0, 0)"/><rect x="16" y="8" width="1" height="1" fill="rgb(1, 1, 1)"/><rect x="17" y="8" width="1" height="1" fill="rgb(0, 0, 0)"/><rect x="18" y="8" width="1" height="1" fill="rgb(33, 33, 33)"/><rect x="19" y="8" width="1" height="1" fill="rgb(78, 78, 78)"/><rect x="20" y="8" width="1" height="1" fill="rgb(79, 79, 79)"/><rect x="21" y="8" width="1" height="1" fill="rgb(58, 58, 58)"/><rect x="22" y="8" width="1" height="1" fill="rgb(25, 25, 25)"/><rect x="23" y="8" width="1" height="1" fill="rgb(3, 3, 3)"/><rect x="24" y="8" width="1" height="1" fill="rgb(0, 0, 0)"/><rect x="25" y="8" width="1" height="1" fill="rgb(45, 45, 45)"/><rect x="26" y="8" width="1" height="1" fill="rgb(252, 252, 252)"/><rect x="0" y="9" width="1" height="1" fill="rgb(122, 122, 122)"/><rect x="1" y="9" width="1" height="1" fill="rgb(32, 32, 32)"/><rect x="2" y="9" width="1" height="1" fill="rgb(28, 28, 28)"/><rect x="3" y="9" width="1" height="1" fill="rgb(56, 56, 56)"/><rect x="4" y="9" width="1" height="1" fill="rgb(90, 90, 90)"/><rect x="5" y="9" width="1" height="1" fill="rgb(128, 128, 128)"/><rect x="6" y="9" width="1" height="1" fill="rgb(139, 139, 139)"/><rect x="7" y="9" width="1" height="1" fill="rgb(138, 138, 138)"/><rect x="8" y="9" width="1" height="1" fill="rgb(125, 125, 125)"/><rect x="9" y="9" width="1" height="1" fill="rgb(94, 94, 94)"/><rect x="10" y="9" width="1" height="1" fill="rgb(65, 65, 65)"/><rect x="11" y="9" width="1" height="1" fill="rgb(47, 47, 47)"/><rect x="12" y="9" width="1" height="1" fill="rgb(18, 18, 18)"/><rect x="13" y="9" width="1" height="1" fill="rgb(0, 0, 0)"/><rect x="14" y="9" width="1" height="1" fill="rgb(0, 0, 0)"/><rect x="15" y="9" width="1" height="1" fill="rgb(0, 0, 0)"/><rect x="16" y="9" width="1" height="1" fill="rgb(5, 5, 5)"/><rect x="17" y="9" width="1" height="1" fill="rgb(12, 12, 12)"/><rect x="18" y="9" width="1" height="1" fill="rgb(12, 12, 12)"/><rect x="19" y="9" width="1" height="1" fill="rgb(11, 11, 11)"/><rect x="20" y="9" width="1" height="1" fill="rgb(11, 11, 11)"/><rect x="21" y="9" width="1" height="1" fill="rgb(11, 11, 11)"/><rect x="22" y="9" width="1" height="1" fill="rgb(11, 11, 11)"/><rect x="23" y="9" width="1" height="1" fill="rgb(19, 19, 19)"/><rect x="24" y="9" width="1" height="1" fill="rgb(31, 31, 31)"/><rect x="25" y="9" width="1" height="1" fill="rgb(95, 95, 95)"/><rect x="26" y="9" width="1" height="1" fill="rgb(253, 253, 253)"/><rect x="0" y="10" width="1" height="1" fill="rgb(159, 159, 159)"/><rect x="1" y="10" width="1" height="1" fill="rgb(111, 111, 111)"/><rect x="2" y="10" width="1" height="1" fill="rgb(148, 148, 148)"/><rect x="3" y="10" width="1" height="1" fill="rgb(204, 204, 204)"/><rect x="4" y="10" width="1" height="1" fill="rgb(230, 230, 230)"/><rect x="5" y="10" width="1" height="1" fill="rgb(230, 230, 230)"/><rect x="6" y="10" width="1" height="1" fill="rgb(228, 228, 228)"/><rect x="7" y="10" width="1" height="1" fill="rgb(230, 230, 230)"/><rect x="8" y="10" width="1" height="1" fill="rgb(231, 231, 231)"/><rect x="9" y="10" width="1" height="1" fill="rgb(233, 233, 233)"/><rect x="10" y="10" width="1" height="1" fill="rgb(217, 217, 217)"/><rect x="11" y="10" width="1" height="1" fill="rgb(193, 193, 193)"/><rect x="12" y="10" width="1" height="1" fill="rgb(75, 75, 75)"/><rect x="13" y="10" width="1" height="1" fill="rgb(0, 0, 0)"/><rect x="14" y="10" width="1" height="1" fill="rgb(0, 0, 0)"/><rect x="15" y="10" width="1" height="1" fill="rgb(8, 8, 8)"/><rect x="16" y="10" width="1" height="1" fill="rgb(56, 56, 56)"/><rect x="17" y="10" width="1" height="1" fill="rgb(74, 74, 74)"/><rect x="18" y="10" width="1" height="1" fill="rgb(72, 72, 72)"/><rect x="19" y="10" width="1" height="1" fill="rgb(71, 71, 71)"/><rect x="20" y="10" width="1" height="1" fill="rgb(72, 72, 72)"/><rect x="21" y="10" width="1" height="1" fill="rgb(75, 75, 75)"/><rect x="22" y="10" width="1" height="1" fill="rgb(84, 84, 84)"/><rect x="23" y="10" width="1" height="1" fill="rgb(110, 110, 110)"/><rect x="24" y="10" width="1" height="1" fill="rgb(153, 153, 153)"/><rect x="25" y="10" width="1" height="1" fill="rgb(219, 219, 219)"/><rect x="26" y="10" width="1" height="1" fill="rgb(254, 254, 254)"/><rect x="0" y="11" width="1" height="1" fill="rgb(203, 203, 203)"/><rect x="1" y="11" width="1" height="1" fill="rgb(210, 210, 210)"/><rect x="2" y="11" width="1" height="1" fill="rgb(245, 245, 245)"/><rect x="3" y="11" width="1" height="1" fill="rgb(253, 253, 253)"/><rect x="4" y="11" width="1" height="1" fill="rgb(253, 253, 253)"/><rect x="5" y="11" width="1" height="1" fill="rgb(254, 254, 254)"/><rect x="6" y="11" width="1" height="1" fill="rgb(254, 254, 254)"/><rect x="7" y="11" width="1" height="1" fill="rgb(254, 254, 254)"/><rect x="8" y="11" width="1" height="1" fill="rgb(254, 254, 254)"/><rect x="9" y="11" width="1" height="1" fill="rgb(253, 253, 253)"/><rect x="10" y="11" width="1" height="1" fill="rgb(252, 252, 252)"/><rect x="11" y="11" width="1" height="1" fill="rgb(238, 238, 238)"/><rect x="12" y="11" width="1" height="1" fill="rgb(106, 106, 106)"/><rect x="13" y="11" width="1" height="1" fill="rgb(18, 18, 18)"/><rect x="14" y="11" width="1" height="1" fill="rgb(0, 0, 0)"/><rect x="15" y="11" width="1" height="1" fill="rgb(37, 37, 37)"/><rect x="16" y="11" width="1" height="1" fill="rgb(158, 158, 158)"/><rect x="17" y="11" width="1" height="1" fill="rgb(153, 153, 153)"/><rect x="18" y="11" width="1" height="1" fill="rgb(147, 147, 147)"/><rect x="19" y="11" width="1" height="1" fill="rgb(146, 146, 146)"/><rect x="20" y="11" width="1" height="1" fill="rgb(150, 150, 150)"/><rect x="21" y="11" width="1" height="1" fill="rgb(162, 162, 162)"/><rect x="22" y="11" width="1" height="1" fill="rgb(177, 177, 177)"/><rect x="23" y="11" width="1" height="1" fill="rgb(213, 213, 213)"/><rect x="24" y="11" width="1" height="1" fill="rgb(248, 248, 248)"/><rect x="25" y="11" width="1" height="1" fill="rgb(252, 252, 252)"/><rect x="26" y="11" width="1" height="1" fill="white"/><rect x="0" y="12" width="1" height="1" fill="rgb(244, 244, 244)"/><rect x="1" y="12" width="1" height="1" fill="rgb(251, 251, 251)"/><rect x="2" y="12" width="1" height="1" fill="rgb(254, 254, 254)"/><rect x="3" y="12" width="1" height="1" fill="rgb(254, 254, 254)"/><rect x="4" y="12" width="1" height="1" fill="rgb(254, 254, 254)"/><rect x="5" y="12" width="1" height="1" fill="rgb(254, 254, 254)"/><rect x="6" y="12" width="1" height="1" fill="rgb(254, 254, 254)"/><rect x="7" y="12" width="1" height="1" fill="rgb(254, 254, 254)"/><rect x="8" y="12" width="1" height="1" fill="rgb(254, 254, 254)"/><rect x="9" y="12" width="1" height="1" fill="rgb(253, 253, 253)"/><rect x="10" y="12" width="1" height="1" fill="rgb(253, 253, 253)"/><rect x="11" y="12" width="1" height="1" fill="rgb(180, 180, 180)"/><rect x="12" y="12" width="1" height="1" fill="rgb(53, 53, 53)"/><rect x="13" y="12" width="1" height="1" fill="rgb(0, 0, 0)"/><rect x="14" y="12" width="1" height="1" fill="rgb(5, 5, 5)"/><rect x="15" y="12" width="1" height="1" fill="rgb(82, 82, 82)"/><rect x="16" y="12" width="1" height="1" fill="rgb(201, 201, 201)"/><rect x="17" y="12" width="1" height="1" fill="rgb(226, 226, 226)"/><rect x="18" y="12" width="1" height="1" fill="rgb(218, 218, 218)"/><rect x="19" y="12" width="1" height="1" fill="rgb(217, 217, 217)"/><rect x="20" y="12" width="1" height="1" fill="rgb(222, 222, 222)"/><rect x="21" y="12" width="1" height="1" fill="rgb(238, 238, 238)"/><rect x="22" y="12" width="1" height="1" fill="rgb(250, 250, 250)"/><rect x="23" y="12" width="1" height="1" fill="rgb(253, 253, 253)"/><rect x="24" y="12" width="1" height="1" fill="rgb(253, 253, 253)"/><rect x="25" y="12" width="1" height="1" fill="rgb(254, 254, 254)"/><rect x="26" y="12" width="1" height="1" fill="white"/><rect x="0" y="13" width="1" height="1" fill="rgb(254, 254, 254)"/><rect x="1" y="13" width="1" height="1" fill="rgb(254, 254, 254)"/><rect x="2" y="13" width="1" height="1" fill="rgb(254, 254, 254)"/><rect x="3" y="13" width="1" height="1" fill="rgb(254, 254, 254)"/><rect x="4" y="13" width="1" height="1" fill="rgb(254, 254, 254)"/><rect x="5" y="13" width="1" height="1" fill="rgb(254, 254, 254)"/><rect x="6" y="13" width="1" height="1" fill="rgb(254, 254, 254)"/><rect x="7" y="13" width="1" height="1" fill="rgb(254, 254, 254)"/><rect x="8" y="13" width="1" height="1" fill="rgb(254, 254, 254)"/><rect x="9" y="13" width="1" height="1" fill="rgb(252, 252, 252)"/><rect x="10" y="13" width="1" height="1" fill="rgb(253, 253, 253)"/><rect x="11" y="13" width="1" height="1" fill="rgb(115, 115, 115)"/><rect x="12" y="13" width="1" height="1" fill="rgb(17, 17, 17)"/><rect x="13" y="13" width="1" height="1" fill="rgb(0, 0, 0)"/><rect x="14" y="13" width="1" height="1" fill="rgb(31, 31, 31)"/><rect x="15" y="13" width="1" height="1" fill="rgb(144, 144, 144)"/><rect x="16" y="13" width="1" height="1" fill="rgb(245, 245, 245)"/><rect x="17" y="13" width="1" height="1" fill="rgb(252, 252, 252)"/><rect x="18" y="13" width="1" height="1" fill="rgb(254, 254, 254)"/><rect x="19" y="13" width="1" height="1" fill="rgb(254, 254, 254)"/><rect x="20" y="13" width="1" height="1" fill="rgb(254, 254, 254)"/><rect x="21" y="13" width="1" height="1" fill="rgb(254, 254, 254)"/><rect x="22" y="13" width="1" height="1" fill="rgb(254, 254, 254)"/><rect x="23" y="13" width="1" height="1" fill="rgb(254, 254, 254)"/><rect x="24" y="13" width="1" height="1" fill="rgb(254, 254, 254)"/><rect x="25" y="13" width="1" height="1" fill="rgb(254, 254, 254)"/><rect x="26" y="13" width="1" height="1" fill="white"/><rect x="0" y="14" width="1" height="1" fill="rgb(238, 238, 238)"/><rect x="1" y="14" width="1" height="1" fill="rgb(223, 223, 223)"/><rect x="2" y="14" width="1" height="1" fill="rgb(220, 220, 220)"/><rect x="3" y="14" width="1" height="1" fill="rgb(221, 221, 221)"/><rect x="4" y="14" width="1" height="1" fill="rgb(221, 221, 221)"/><rect x="5" y="14" width="1" height="1" fill="rgb(221, 221, 221)"/><rect x="6" y="14" width="1" height="1" fill="rgb(221, 221, 221)"/><rect x="7" y="14" width="1" height="1" fill="rgb(221, 221, 221)"/><rect x="8" y="14" width="1" height="1" fill="rgb(221, 221, 221)"/><rect x="9" y="14" width="1" height="1" fill="rgb(220, 220, 220)"/><rect x="10" y="14" width="1" height="1" fill="rgb(193, 193, 193)"/><rect x="11" y="14" width="1" height="1" fill="rgb(53, 53, 53)"/><rect x="12" y="14" width="1" height="1" fill="rgb(0, 0, 0)"/><rect x="13" y="14" width="1" height="1" fill="rgb(0, 0, 0)"/><rect x="14" y="14" width="1" height="1" fill="rgb(47, 47, 47)"/><rect x="15" y="14" width="1" height="1" fill="rgb(174, 174, 174)"/><rect x="16" y="14" width="1" height="1" fill="rgb(219, 219, 219)"/><rect x="17" y="14" width="1" height="1" fill="rgb(220, 220, 220)"/><rect x="18" y="14" width="1" height="1" fill="rgb(221, 221, 221)"/><rect x="19" y="14" width="1" height="1" fill="rgb(221, 221, 221)"/><rect x="20" y="14" width="1" height="1" fill="rgb(221, 221, 221)"/><rect x="21" y="14" width="1" height="1" fill="rgb(221, 221, 221)"/><rect x="22" y="14" width="1" height="1" fill="rgb(221, 221, 221)"/><rect x="23" y="14" width="1" height="1" fill="rgb(222, 222, 222)"/><rect x="24" y="14" width="1" height="1" fill="rgb(218, 218, 218)"/><rect x="25" y="14" width="1" height="1" fill="rgb(226, 226, 226)"/><rect x="26" y="14" width="1" height="1" fill="white"/><rect x="0" y="15" width="1" height="1" fill="rgb(211, 211, 211)"/><rect x="1" y="15" width="1" height="1" fill="rgb(179, 179, 179)"/><rect x="2" y="15" width="1" height="1" fill="rgb(172, 172, 172)"/><rect x="3" y="15" width="1" height="1" fill="rgb(173, 173, 173)"/><rect x="4" y="15" width="1" height="1" fill="rgb(163, 163, 163)"/><rect x="5" y="15" width="1" height="1" fill="rgb(146, 146, 146)"/><rect x="6" y="15" width="1" height="1" fill="rgb(138, 138, 138)"/><rect x="7" y="15" width="1" height="1" fill="rgb(136, 136, 136)"/><rect x="8" y="15" width="1" height="1" fill="rgb(143, 143, 143)"/><rect x="9" y="15" width="1" height="1" fill="rgb(156, 156, 156)"/><rect x="10" y="15" width="1" height="1" fill="rgb(104, 104, 104)"/><rect x="11" y="15" width="1" height="1" fill="rgb(16, 16, 16)"/><rect x="12" y="15" width="1" height="1" fill="rgb(0, 0, 0)"/><rect x="13" y="15" width="1" height="1" fill="rgb(9, 9, 9)"/><rect x="14" y="15" width="1" height="1" fill="rgb(74, 74, 74)"/><rect x="15" y="15" width="1" height="1" fill="rgb(161, 161, 161)"/><rect x="16" y="15" width="1" height="1" fill="rgb(172, 172, 172)"/><rect x="17" y="15" width="1" height="1" fill="rgb(172, 172, 172)"/><rect x="18" y="15" width="1" height="1" fill="rgb(173, 173, 173)"/><rect x="19" y="15" width="1" height="1" fill="rgb(173, 173, 173)"/><rect x="20" y="15" width="1" height="1" fill="rgb(173, 173, 173)"/><rect x="21" y="15" width="1" height="1" fill="rgb(173, 173, 173)"/><rect x="22" y="15" width="1" height="1" fill="rgb(172, 172, 172)"/><rect x="23" y="15" width="1" height="1" fill="rgb(174, 174, 174)"/><rect x="24" y="15" width="1" height="1" fill="rgb(170, 170, 170)"/><rect x="25" y="15" width="1" height="1" fill="rgb(179, 179, 179)"/><rect x="26" y="15" width="1" height="1" fill="rgb(253, 253, 253)"/><rect x="0" y="16" width="1" height="1" fill="rgb(194, 194, 194)"/><rect x="1" y="16" width="1" height="1" fill="rgb(152, 152, 152)"/><rect x="2" y="16" width="1" height="1" fill="rgb(117, 117, 117)"/><rect x="3" y="16" width="1" height="1" fill="rgb(78, 78, 78)"/><rect x="4" y="16" width="1" height="1" fill="rgb(59, 59, 59)"/><rect x="5" y="16" width="1" height="1" fill="rgb(59, 59, 59)"/><rect x="6" y="16" width="1" height="1" fill="rgb(59, 59, 59)"/><rect x="7" y="16" width="1" height="1" fill="rgb(59, 59, 59)"/><rect x="8" y="16" width="1" height="1" fill="rgb(59, 59, 59)"/><rect x="9" y="16" width="1" height="1" fill="rgb(58, 58, 58)"/><rect x="10" y="16" width="1" height="1" fill="rgb(9, 9, 9)"/><rect x="11" y="16" width="1" height="1" fill="rgb(0, 0, 0)"/><rect x="12" y="16" width="1" height="1" fill="rgb(0, 0, 0)"/><rect x="13" y="16" width="1" height="1" fill="rgb(17, 17, 17)"/><rect x="14" y="16" width="1" height="1" fill="rgb(94, 94, 94)"/><rect x="15" y="16" width="1" height="1" fill="rgb(145, 145, 145)"/><rect x="16" y="16" width="1" height="1" fill="rgb(142, 142, 142)"/><rect x="17" y="16" width="1" height="1" fill="rgb(144, 144, 144)"/><rect x="18" y="16" width="1" height="1" fill="rgb(144, 144, 144)"/><rect x="19" y="16" width="1" height="1" fill="rgb(144, 144, 144)"/><rect x="20" y="16" width="1" height="1" fill="rgb(144, 144, 144)"/><rect x="21" y="16" width="1" height="1" fill="rgb(143, 143, 143)"/><rect x="22" y="16" width="1" height="1" fill="rgb(143, 143, 143)"/><rect x="23" y="16" width="1" height="1" fill="rgb(146, 146, 146)"/><rect x="24" y="16" width="1" height="1" fill="rgb(110, 110, 110)"/><rect x="25" y="16" width="1" height="1" fill="rgb(95, 95, 95)"/><rect x="26" y="16" width="1" height="1" fill="rgb(252, 252, 252)"/><rect x="0" y="17" width="1" height="1" fill="rgb(162, 162, 162)"/><rect x="1" y="17" width="1" height="1" fill="rgb(47, 47, 47)"/><rect x="2" y="17" width="1" height="1" fill="rgb(8, 8, 8)"/><rect x="3" y="17" width="1" height="1" fill="rgb(9, 9, 9)"/><rect x="4" y="17" width="1" height="1" fill="rgb(8, 8, 8)"/><rect x="5" y="17" width="1" height="1" fill="rgb(8, 8, 8)"/><rect x="6" y="17" width="1" height="1" fill="rgb(8, 8, 8)"/><rect x="7" y="17" width="1" height="1" fill="rgb(8, 8, 8)"/><rect x="8" y="17" width="1" height="1" fill="rgb(8, 8, 8)"/><rect x="9" y="17" width="1" height="1" fill="rgb(8, 8, 8)"/><rect x="10" y="17" width="1" height="1" fill="rgb(0, 0, 0)"/><rect x="11" y="17" width="1" height="1" fill="rgb(0, 0, 0)"/><rect x="12" y="17" width="1" height="1" fill="rgb(0, 0, 0)"/><rect x="13" y="17" width="1" height="1" fill="rgb(4, 4, 4)"/><rect x="14" y="17" width="1" height="1" fill="rgb(32, 32, 32)"/><rect x="15" y="17" width="1" height="1" fill="rgb(70, 70, 70)"/><rect x="16" y="17" width="1" height="1" fill="rgb(91, 91, 91)"/><rect x="17" y="17" width="1" height="1" fill="rgb(92, 92, 92)"/><rect x="18" y="17" width="1" height="1" fill="rgb(93, 93, 93)"/><rect x="19" y="17" width="1" height="1" fill="rgb(93, 93, 93)"/><rect x="20" y="17" width="1" height="1" fill="rgb(92, 92, 92)"/><rect x="21" y="17" width="1" height="1" fill="rgb(93, 93, 93)"/><rect x="22" y="17" width="1" height="1" fill="rgb(80, 80, 80)"/><rect x="23" y="17" width="1" height="1" fill="rgb(41, 41, 41)"/><rect x="24" y="17" width="1" height="1" fill="rgb(7, 7, 7)"/><rect x="25" y="17" width="1" height="1" fill="rgb(39, 39, 39)"/><rect x="26" y="17" width="1" height="1" fill="rgb(252, 252, 252)"/><rect x="0" y="18" width="1" height="1" fill="rgb(153, 153, 153)"/><rect x="1" y="18" width="1" height="1" fill="rgb(73, 73, 73)"/><rect x="2" y="18" width="1" height="1" fill="rgb(60, 60, 60)"/><rect x="3" y="18" width="1" height="1" fill="rgb(60, 60, 60)"/><rect x="4" y="18" width="1" height="1" fill="rgb(60, 60, 60)"/><rect x="5" y="18" width="1" height="1" fill="rgb(60, 60, 60)"/><rect x="6" y="18" width="1" height="1" fill="rgb(60, 60, 60)"/><rect x="7" y="18" width="1" height="1" fill="rgb(60, 60, 60)"/><rect x="8" y="18" width="1" height="1" fill="rgb(60, 60, 60)"/><rect x="9" y="18" width="1" height="1" fill="rgb(10, 10, 10)"/><rect x="10" y="18" width="1" height="1" fill="rgb(0, 0, 0)"/><rect x="11" y="18" width="1" height="1" fill="rgb(0, 0, 0)"/><rect x="12" y="18" width="1" height="1" fill="rgb(15, 15, 15)"/><rect x="13" y="18" width="1" height="1" fill="rgb(48, 48, 48)"/><rect x="14" y="18" width="1" height="1" fill="rgb(60, 60, 60)"/><rect x="15" y="18" width="1" height="1" fill="rgb(59, 59, 59)"/><rect x="16" y="18" width="1" height="1" fill="rgb(65, 65, 65)"/><rect x="17" y="18" width="1" height="1" fill="rgb(85, 85, 85)"/><rect x="18" y="18" width="1" height="1" fill="rgb(99, 99, 99)"/><rect x="19" y="18" width="1" height="1" fill="rgb(104, 104, 104)"/><rect x="20" y="18" width="1" height="1" fill="rgb(99, 99, 99)"/><rect x="21" y="18" width="1" height="1" fill="rgb(78, 78, 78)"/><rect x="22" y="18" width="1" height="1" fill="rgb(62, 62, 62)"/><rect x="23" y="18" width="1" height="1" fill="rgb(62, 62, 62)"/><rect x="24" y="18" width="1" height="1" fill="rgb(60, 60, 60)"/><rect x="25" y="18" width="1" height="1" fill="rgb(90, 90, 90)"/><rect x="26" y="18" width="1" height="1" fill="rgb(252, 252, 252)"/><rect x="0" y="19" width="1" height="1" fill="rgb(158, 158, 158)"/><rect x="1" y="19" width="1" height="1" fill="rgb(91, 91, 91)"/><rect x="2" y="19" width="1" height="1" fill="rgb(85, 85, 85)"/><rect x="3" y="19" width="1" height="1" fill="rgb(99, 99, 99)"/><rect x="4" y="19" width="1" height="1" fill="rgb(130, 130, 130)"/><rect x="5" y="19" width="1" height="1" fill="rgb(156, 156, 156)"/><rect x="6" y="19" width="1" height="1" fill="rgb(167, 167, 167)"/><rect x="7" y="19" width="1" height="1" fill="rgb(165, 165, 165)"/><rect x="8" y="19" width="1" height="1" fill="rgb(130, 130, 130)"/><rect x="9" y="19" width="1" height="1" fill="rgb(8, 8, 8)"/><rect x="10" y="19" width="1" height="1" fill="rgb(0, 0, 0)"/><rect x="11" y="19" width="1" height="1" fill="rgb(0, 0, 0)"/><rect x="12" y="19" width="1" height="1" fill="rgb(38, 38, 38)"/><rect x="13" y="19" width="1" height="1" fill="rgb(85, 85, 85)"/><rect x="14" y="19" width="1" height="1" fill="rgb(85, 85, 85)"/><rect x="15" y="19" width="1" height="1" fill="rgb(85, 85, 85)"/><rect x="16" y="19" width="1" height="1" fill="rgb(85, 85, 85)"/><rect x="17" y="19" width="1" height="1" fill="rgb(85, 85, 85)"/><rect x="18" y="19" width="1" height="1" fill="rgb(85, 85, 85)"/><rect x="19" y="19" width="1" height="1" fill="rgb(85, 85, 85)"/><rect x="20" y="19" width="1" height="1" fill="rgb(85, 85, 85)"/><rect x="21" y="19" width="1" height="1" fill="rgb(85, 85, 85)"/><rect x="22" y="19" width="1" height="1" fill="rgb(85, 85, 85)"/><rect x="23" y="19" width="1" height="1" fill="rgb(85, 85, 85)"/><rect x="24" y="19" width="1" height="1" fill="rgb(85, 85, 85)"/><rect x="25" y="19" width="1" height="1" fill="rgb(122, 122, 122)"/><rect x="26" y="19" width="1" height="1" fill="white"/><rect x="0" y="20" width="1" height="1" fill="rgb(188, 188, 188)"/><rect x="1" y="20" width="1" height="1" fill="rgb(142, 142, 142)"/><rect x="2" y="20" width="1" height="1" fill="rgb(173, 173, 173)"/><rect x="3" y="20" width="1" height="1" fill="rgb(211, 211, 211)"/><rect x="4" y="20" width="1" height="1" fill="rgb(214, 214, 214)"/><rect x="5" y="20" width="1" height="1" fill="rgb(210, 210, 210)"/><rect x="6" y="20" width="1" height="1" fill="rgb(214, 214, 214)"/><rect x="7" y="20" width="1" height="1" fill="rgb(202, 202, 202)"/><rect x="8" y="20" width="1" height="1" fill="rgb(83, 83, 83)"/><rect x="9" y="20" width="1" height="1" fill="rgb(0, 0, 0)"/><rect x="10" y="20" width="1" height="1" fill="rgb(0, 0, 0)"/><rect x="11" y="20" width="1" height="1" fill="rgb(11, 11, 11)"/><rect x="12" y="20" width="1" height="1" fill="rgb(118, 118, 118)"/><rect x="13" y="20" width="1" height="1" fill="rgb(151, 151, 151)"/><rect x="14" y="20" width="1" height="1" fill="rgb(126, 126, 126)"/><rect x="15" y="20" width="1" height="1" fill="rgb(129, 129, 129)"/><rect x="16" y="20" width="1" height="1" fill="rgb(129, 129, 129)"/><rect x="17" y="20" width="1" height="1" fill="rgb(129, 129, 129)"/><rect x="18" y="20" width="1" height="1" fill="rgb(129, 129, 129)"/><rect x="19" y="20" width="1" height="1" fill="rgb(129, 129, 129)"/><rect x="20" y="20" width="1" height="1" fill="rgb(129, 129, 129)"/><rect x="21" y="20" width="1" height="1" fill="rgb(130, 130, 130)"/><rect x="22" y="20" width="1" height="1" fill="rgb(129, 129, 129)"/><rect x="23" y="20" width="1" height="1" fill="rgb(134, 134, 134)"/><rect x="24" y="20" width="1" height="1" fill="rgb(172, 172, 172)"/><rect x="25" y="20" width="1" height="1" fill="rgb(220, 220, 220)"/><rect x="26" y="20" width="1" height="1" fill="rgb(254, 254, 254)"/><rect x="0" y="21" width="1" height="1" fill="rgb(220, 220, 220)"/><rect x="1" y="21" width="1" height="1" fill="rgb(240, 240, 240)"/><rect x="2" y="21" width="1" height="1" fill="rgb(254, 254, 254)"/><rect x="3" y="21" width="1" height="1" fill="white"/><rect x="4" y="21" width="1" height="1" fill="rgb(254, 254, 254)"/><rect x="5" y="21" width="1" height="1" fill="rgb(253, 253, 253)"/><rect x="6" y="21" width="1" height="1" fill="white"/><rect x="7" y="21" width="1" height="1" fill="rgb(226, 226, 226)"/><rect x="8" y="21" width="1" height="1" fill="rgb(26, 26, 26)"/><rect x="9" y="21" width="1" height="1" fill="rgb(0, 0, 0)"/><rect x="10" y="21" width="1" height="1" fill="rgb(0, 0, 0)"/><rect x="11" y="21" width="1" height="1" fill="rgb(77, 77, 77)"/><rect x="12" y="21" width="1" height="1" fill="rgb(226, 226, 226)"/><rect x="13" y="21" width="1" height="1" fill="rgb(254, 254, 254)"/><rect x="14" y="21" width="1" height="1" fill="rgb(237, 237, 237)"/><rect x="15" y="21" width="1" height="1" fill="rgb(214, 214, 214)"/><rect x="16" y="21" width="1" height="1" fill="rgb(194, 194, 194)"/><rect x="17" y="21" width="1" height="1" fill="rgb(181, 181, 181)"/><rect x="18" y="21" width="1" height="1" fill="rgb(173, 173, 173)"/><rect x="19" y="21" width="1" height="1" fill="rgb(171, 171, 171)"/><rect x="20" y="21" width="1" height="1" fill="rgb(177, 177, 177)"/><rect x="21" y="21" width="1" height="1" fill="rgb(190, 190, 190)"/><rect x="22" y="21" width="1" height="1" fill="rgb(216, 216, 216)"/><rect x="23" y="21" width="1" height="1" fill="rgb(244, 244, 244)"/><rect x="24" y="21" width="1" height="1" fill="white"/><rect x="25" y="21" width="1" height="1" fill="rgb(254, 254, 254)"/><rect x="26" y="21" width="1" height="1" fill="white"/><rect x="0" y="22" width="1" height="1" fill="rgb(253, 253, 253)"/><rect x="1" y="22" width="1" height="1" fill="rgb(252, 252, 252)"/><rect x="2" y="22" width="1" height="1" fill="rgb(252, 252, 252)"/><rect x="3" y="22" width="1" height="1" fill="rgb(252, 252, 252)"/><rect x="4" y="22" width="1" height="1" fill="rgb(250, 250, 250)"/><rect x="5" y="22" width="1" height="1" fill="rgb(251, 251, 251)"/><rect x="6" y="22" width="1" height="1" fill="rgb(240, 240, 240)"/><rect x="7" y="22" width="1" height="1" fill="rgb(144, 144, 144)"/><rect x="8" y="22" width="1" height="1" fill="rgb(0, 0, 0)"/><rect x="9" y="22" width="1" height="1" fill="rgb(0, 0, 0)"/><rect x="10" y="22" width="1" height="1" fill="rgb(0, 0, 0)"/><rect x="11" y="22" width="1" height="1" fill="rgb(164, 164, 164)"/><rect x="12" y="22" width="1" height="1" fill="rgb(249, 249, 249)"/><rect x="13" y="22" width="1" height="1" fill="rgb(248, 248, 248)"/><rect x="14" y="22" width="1" height="1" fill="rgb(251, 251, 251)"/><rect x="15" y="22" width="1" height="1" fill="rgb(252, 252, 252)"/><rect x="16" y="22" width="1" height="1" fill="rgb(252, 252, 252)"/><rect x="17" y="22" width="1" height="1" fill="rgb(252, 252, 252)"/><rect x="18" y="22" width="1" height="1" fill="rgb(252, 252, 252)"/><rect x="19" y="22" width="1" height="1" fill="rgb(252, 252, 252)"/><rect x="20" y="22" width="1" height="1" fill="rgb(252, 252, 252)"/><rect x="21" y="22" width="1" height="1" fill="rgb(252, 252, 252)"/><rect x="22" y="22" width="1" height="1" fill="rgb(252, 252, 252)"/><rect x="23" y="22" width="1" height="1" fill="rgb(252, 252, 252)"/><rect x="24" y="22" width="1" height="1" fill="rgb(252, 252, 252)"/><rect x="25" y="22" width="1" height="1" fill="rgb(253, 253, 253)"/><rect x="26" y="22" width="1" height="1" fill="white"/><rect x="0" y="23" width="1" height="1" fill="white"/><rect x="1" y="23" width="1" height="1" fill="white"/><rect x="2" y="23" width="1" height="1" fill="white"/><rect x="3" y="23" width="1" height="1" fill="white"/><rect x="4" y="23" width="1" height="1" fill="rgb(249, 249, 249)"/><rect x="5" y="23" width="1" height="1" fill="white"/><rect x="6" y="23" width="1" height="1" fill="rgb(216, 216, 216)"/><rect x="7" y="23" width="1" height="1" fill="rgb(52, 52, 52)"/><rect x="8" y="23" width="1" height="1" fill="rgb(1, 1, 1)"/><rect x="9" y="23" width="1" height="1" fill="rgb(0, 0, 0)"/><rect x="10" y="23" width="1" height="1" fill="rgb(43, 43, 43)"/><rect x="11" y="23" width="1" height="1" fill="rgb(215, 215, 215)"/><rect x="12" y="23" width="1" height="1" fill="white"/><rect x="13" y="23" width="1" height="1" fill="rgb(250, 250, 250)"/><rect x="14" y="23" width="1" height="1" fill="white"/><rect x="15" y="23" width="1" height="1" fill="white"/><rect x="16" y="23" width="1" height="1" fill="white"/><rect x="17" y="23" width="1" height="1" fill="white"/><rect x="18" y="23" width="1" height="1" fill="white"/><rect x="19" y="23" width="1" height="1" fill="white"/><rect x="20" y="23" width="1" height="1" fill="white"/><rect x="21" y="23" width="1" height="1" fill="white"/><rect x="22" y="23" width="1" height="1" fill="white"/><rect x="23" y="23" width="1" height="1" fill="white"/><rect x="24" y="23" width="1" height="1" fill="white"/><rect x="25" y="23" width="1" height="1" fill="white"/><rect x="26" y="23" width="1" height="1" fill="white"/><rect x="0" y="24" width="1" height="1" fill="white"/><rect x="1" y="24" width="1" height="1" fill="white"/><rect x="2" y="24" width="1" height="1" fill="white"/><rect x="3" y="24" width="1" height="1" fill="rgb(253, 253, 253)"/><rect x="4" y="24" width="1" height="1" fill="rgb(251, 251, 251)"/><rect x="5" y="24" width="1" height="1" fill="rgb(244, 244, 244)"/><rect x="6" y="24" width="1" height="1" fill="rgb(157, 157, 157)"/><rect x="7" y="24" width="1" height="1" fill="rgb(2, 2, 2)"/><rect x="8" y="24" width="1" height="1" fill="rgb(0, 0, 0)"/><rect x="9" y="24" width="1" height="1" fill="rgb(0, 0, 0)"/><rect x="10" y="24" width="1" height="1" fill="rgb(140, 140, 140)"/><rect x="11" y="24" width="1" height="1" fill="rgb(240, 240, 240)"/><rect x="12" y="24" width="1" height="1" fill="rgb(254, 254, 254)"/><rect x="13" y="24" width="1" height="1" fill="rgb(252, 252, 252)"/><rect x="14" y="24" width="1" height="1" fill="white"/><rect x="15" y="24" width="1" height="1" fill="white"/><rect x="16" y="24" width="1" height="1" fill="white"/><rect x="17" y="24" width="1" height="1" fill="white"/><rect x="18" y="24" width="1" height="1" fill="white"/><rect x="19" y="24" width="1" height="1" fill="white"/><rect x="20" y="24" width="1" height="1" fill="white"/><rect x="21" y="24" width="1" height="1" fill="white"/><rect x="22" y="24" width="1" height="1" fill="white"/><rect x="23" y="24" width="1" height="1" fill="white"/><rect x="24" y="24" width="1" height="1" fill="white"/><rect x="25" y="24" width="1" height="1" fill="white"/><rect x="26" y="24" width="1" height="1" fill="white"/><rect x="0" y="25" width="1" height="1" fill="white"/><rect x="1" y="25" width="1" height="1" fill="white"/><rect x="2" y="25" width="1" height="1" fill="white"/><rect x="3" y="25" width="1" height="1" fill="rgb(250, 250, 250)"/><rect x="4" y="25" width="1" height="1" fill="white"/><rect x="5" y="25" width="1" height="1" fill="rgb(226, 226, 226)"/><rect x="6" y="25" width="1" height="1" fill="rgb(97, 97, 97)"/><rect x="7" y="25" width="1" height="1" fill="rgb(4, 4, 4)"/><rect x="8" y="25" width="1" height="1" fill="rgb(0, 0, 0)"/><rect x="9" y="25" width="1" height="1" fill="rgb(29, 29, 29)"/><rect x="10" y="25" width="1" height="1" fill="rgb(206, 206, 206)"/><rect x="11" y="25" width="1" height="1" fill="white"/><rect x="12" y="25" width="1" height="1" fill="rgb(252, 252, 252)"/><rect x="13" y="25" width="1" height="1" fill="rgb(253, 253, 253)"/><rect x="14" y="25" width="1" height="1" fill="white"/><rect x="15" y="25" width="1" height="1" fill="white"/><rect x="16" y="25" width="1" height="1" fill="white"/><rect x="17" y="25" width="1" height="1" fill="white"/><rect x="18" y="25" width="1" height="1" fill="white"/><rect x="19" y="25" width="1" height="1" fill="white"/><rect x="20" y="25" width="1" height="1" fill="white"/><rect x="21" y="25" width="1" height="1" fill="white"/><rect x="22" y="25" width="1" height="1" fill="white"/><rect x="23" y="25" width="1" height="1" fill="white"/><rect x="24" y="25" width="1" height="1" fill="white"/><rect x="25" y="25" width="1" height="1" fill="white"/><rect x="26" y="25" width="1" height="1" fill="white"/><rect x="0" y="26" width="1" height="1" fill="white"/><rect x="1" y="26" width="1" height="1" fill="white"/><rect x="2" y="26" width="1" height="1" fill="white"/><rect x="3" y="26" width="1" height="1" fill="rgb(253, 253, 253)"/><rect x="4" y="26" width="1" height="1" fill="rgb(254, 254, 254)"/><rect x="5" y="26" width="1" height="1" fill="rgb(251, 251, 251)"/><rect x="6" y="26" width="1" height="1" fill="rgb(202, 202, 202)"/><rect x="7" y="26" width="1" height="1" fill="rgb(101, 101, 101)"/><rect x="8" y="26" width="1" height="1" fill="rgb(36, 36, 36)"/><rect x="9" y="26" width="1" height="1" fill="rgb(112, 112, 112)"/><rect x="10" y="26" width="1" height="1" fill="rgb(240, 240, 240)"/><rect x="11" y="26" width="1" height="1" fill="rgb(254, 254, 254)"/><rect x="12" y="26" width="1" height="1" fill="rgb(252, 252, 252)"/><rect x="13" y="26" width="1" height="1" fill="white"/><rect x="14" y="26" width="1" height="1" fill="white"/><rect x="15" y="26" width="1" height="1" fill="white"/><rect x="16" y="26" width="1" height="1" fill="white"/><rect x="17" y="26" width="1" height="1" fill="white"/><rect x="18" y="26" width="1" height="1" fill="white"/><rect x="19" y="26" width="1" height="1" fill="white"/><rect x="20" y="26" width="1" height="1" fill="white"/><rect x="21" y="26" width="1" height="1" fill="white"/><rect x="22" y="26" width="1" height="1" fill="white"/><rect x="23" y="26" width="1" height="1" fill="white"/><rect x="24" y="26" width="1" height="1" fill="white"/><rect x="25" y="26" width="1" height="1" fill="white"/><rect x="26" y="26" width="1" height="1" fill="white"/><rect x="0" y="27" width="1" height="1" fill="white"/><rect x="1" y="27" width="1" height="1" fill="white"/><rect x="2" y="27" width="1" height="1" fill="white"/><rect x="3" y="27" width="1" height="1" fill="white"/><rect x="4" y="27" width="1" height="1" fill="white"/><rect x="5" y="27" width="1" height="1" fill="rgb(254, 254, 254)"/><rect x="6" y="27" width="1" height="1" fill="white"/><rect x="7" y="27" width="1" height="1" fill="rgb(254, 254, 254)"/><rect x="8" y="27" width="1" height="1" fill="rgb(240, 240, 240)"/><rect x="9" y="27" width="1" height="1" fill="rgb(235, 235, 235)"/><rect x="10" y="27" width="1" height="1" fill="rgb(251, 251, 251)"/><rect x="11" y="27" width="1" height="1" fill="white"/><rect x="12" y="27" width="1" height="1" fill="rgb(254, 254, 254)"/><rect x="13" y="27" width="1" height="1" fill="white"/><rect x="14" y="27" width="1" height="1" fill="white"/><rect x="15" y="27" width="1" height="1" fill="white"/><rect x="16" y="27" width="1" height="1" fill="white"/><rect x="17" y="27" width="1" height="1" fill="white"/><rect x="18" y="27" width="1" height="1" fill="white"/><rect x="19" y="27" width="1" height="1" fill="white"/><rect x="20" y="27" width="1" height="1" fill="white"/><rect x="21" y="27" width="1" height="1" fill="white"/><rect x="22" y="27" width="1" height="1" fill="white"/><rect x="23" y="27" width="1" height="1" fill="white"/><rect x="24" y="27" width="1" height="1" fill="white"/><rect x="25" y="27" width="1" height="1" fill="white"/><rect x="26" y="27" width="1" height="1" fill="white"/></svg>